<svg xmlns="http://www.w3.org/2000/svg" xmlns:xlink="http://www.w3.org/1999/xlink" viewBox="0 0 1050.49 293.56"><defs><style>.cls-1,.cls-5,.cls-7{fill:none;}.cls-2{fill:#3e3a39;}.cls-3{fill:#717171;}.cls-4{fill:#e76076;}.cls-5{stroke:#6d6e71;stroke-width:0.75px;}.cls-5,.cls-7{stroke-miterlimit:10;}.cls-6{clip-path:url(#clip-path);}.cls-7{stroke:#919396;stroke-width:0.5px;}</style><clipPath id="clip-path"><rect class="cls-1" x="0.38" y="327.67" width="1049.74" height="292.81"/></clipPath></defs><g id="hi"><path class="cls-2" d="M317.76,125.68h-8.24V115.63h18.75v-10H341v10h19v10.05h-8.06a19.43,19.43,0,0,1,4.62,12.6c0,11.42-9.61,20.47-21.74,20.47s-21.57-9.05-21.57-20.47A19.35,19.35,0,0,1,317.76,125.68ZM336.24,165v16.13h43.49v10.32H323.47V165Zm-1.44-16.76c5.52,0,9.24-4.44,9.24-10.79s-3.72-11.23-9.24-11.23-9.25,5-9.25,11.23S329.27,148.25,334.8,148.25Zm43.58-40.59v23h13.41v10.42H378.38v27.37h-12.6v-60.8Z"/><path class="cls-2" d="M446.11,143.81v10H401.17V126h27.36v-6.8H401.17V109h39.77v27.09H413.58v7.7Zm-33.44,15.67h54.82v32.89H412.67Zm12.69,10.24v12.14H454.8V169.72Zm42.13-62.06v47.75h-12.6V107.66Z"/><path class="cls-2" d="M518.81,159.66v10.69H483.93V112.73h32.16v10.69H496.61v36.24Zm35.61-52v83.8H542.19V147h-6.07v41.77H524.25V108.66h11.87v27.72h6.07V107.66Z"/><path class="cls-2" d="M572.59,124.87h-7.7V114.73h18.75v-9.88h12.69v9.88h19v10.14h-7.62a18.83,18.83,0,0,1,3.9,11.33c0,10.87-9.42,19.75-21.47,19.75s-21.39-8.88-21.39-19.75A18.74,18.74,0,0,1,572.59,124.87Zm48.56,67.5V171.89H578.84V161.48h54.91v30.89Zm-31-46.84c5.62,0,9.24-4.44,9.24-10.06s-3.62-10.15-9.24-10.15-9.25,4.54-9.25,10.15S584.46,145.53,590.17,145.53Zm43.58-37.87v20.11h13.41v10.6H633.75V157h-12.6V107.66Z"/><path class="cls-2" d="M669,172.35V145.8h12.41v26.55h8.16V145.8H702v26.55h27.82v10.42H651.92V172.35Zm50.56-11.69H707.1V124.24H661.16v-10.7H719.6Z"/><path class="cls-2" d="M792.67,165v10.6H737.49V165Zm-51.38-32.8c0-13,10.88-22,23.66-22,12.41,0,23.73,9.06,23.73,22,0,13.14-11,22-23.73,22S741.29,145.44,741.29,132.21Zm34.53,0c0-6.89-4.9-11.51-10.87-11.51s-11,4.62-11,11.51,4.89,11.6,11,11.6S775.82,139.18,775.82,132.21Zm34-24.55v83.8H797.2v-83.8Z"/><path class="cls-2" d="M822.16,172.35h19.75V160H832.4V130.4h44.67v-8.52H832.4V111.46h57.36v29.18H845.18v9H891V160H880.24v12.32h19.84v10.42H822.16Zm45.67,0V160H854.42v12.32Z"/><path class="cls-2" d="M941.08,154V165.1H928.67V154H907.74V143.81H962V154Zm15.5-30.09c0,9.52-8.16,17.68-21.2,17.68-13.32,0-21.48-8.07-21.48-17.49,0-9.61,7.89-18,21.48-18C948.42,106.11,956.58,114.36,956.58,123.87Zm-21.29,57.27H981.5v10.32h-59V167.73h12.78Zm9.06-57.27c0-4-3.63-7.61-9-7.61-5.71,0-9.25,3.62-9.25,7.61s3.54,7.61,9.25,7.61C940.72,131.48,944.35,128,944.35,123.87Zm23,43.59H950.23v-9.79h17.13V107.56H980v65.15H967.36Z"/><path class="cls-3" d="M57.84,115.67c10.17,1,9.29,4.07,16.53,11.29,9.65,9.6,19.09,10.13,25.81,4.84-4.06-1.26-8.74-4.6-11.34-7.07C81.55,117.87,79.51,108.79,58,115c-1,.28-.73.61-.11.67"/><path class="cls-3" d="M278.43,101.25C245.58,86.6,212,94.87,185,119c-26.31,23.51-44.29,51.18-79.59,51.78,27,9.38,80.3,5.86,109.52-23.35.77-.81.18-.71-.32-.44-16.9,10.24-43.66,15.27-55.18,11.5,30.59-19.8,55-54.44,118.85-55.93,2.34-.26,2.25-.37.13-1.31"/><path class="cls-3" d="M103,155.16c-6,.08-12.15-3.28-15.77-5.71-5.31-3.55-9.06-8.69-13.19-12.74-6.72-6.62-18-11.53-33.41-5.36-.83.34-1,.74-.18.78,14.15.72,13.67,2.44,25.54,15.62,8,8.9,29.42,11.42,37,7.41"/><path class="cls-4" d="M250.2,84.55c-5-3-23.82-12.62-42.14-10.73-9.5,1-17.77,3.51-26.09,9.46-3.93,2.53-6.65,4.44-9,6.21h0l-1.36,1a65.17,65.17,0,0,1-17.92,9.59c-1.34.41-2.53.74-3.47,1,12.3-15.75,25.55-30.8,41.91-37.2a.5.5,0,0,0,0-1c-19.88-5-40.68-2.19-57.07,23-18.67,28.69-29.81,62.9-55.62,50.54,15.94,15.16,35.62,8.6,52.54-11.89,2.38-2.9,4.79-5.94,7.17-9l2.82-3.68a55.73,55.73,0,0,0,17.39-4l-5.57,7.65c-18.5,25.38-43.33,55.83-80.19,40.78,42.55,28.31,74.38-12.4,90.19-27.27,19.57-18.38,39.26-41.93,86.52-43.24,1.07,0,1.84-.16,0-1.27"/><rect class="cls-5" x="0.38" y="0.38" width="1049.74" height="292.81"/><g class="cls-6"><line class="cls-7" x1="18.41" y1="109.56" x2="18.41" y2="1760.14"/><line class="cls-7" x1="37.25" y1="109.56" x2="37.25" y2="1760.14"/><line class="cls-7" x1="56.09" y1="109.56" x2="56.09" y2="1760.14"/><line class="cls-7" x1="74.93" y1="109.56" x2="74.93" y2="1760.14"/><line class="cls-7" x1="93.77" y1="109.56" x2="93.77" y2="1760.14"/><line class="cls-7" x1="112.6" y1="109.56" x2="112.6" y2="1760.14"/><line class="cls-7" x1="131.44" y1="109.56" x2="131.44" y2="1760.14"/><line class="cls-7" x1="150.28" y1="109.56" x2="150.28" y2="1760.14"/><line class="cls-7" x1="169.12" y1="109.56" x2="169.12" y2="1760.14"/><line class="cls-7" x1="187.96" y1="109.56" x2="187.96" y2="1760.14"/><line class="cls-7" x1="206.79" y1="109.56" x2="206.79" y2="1760.14"/><line class="cls-7" x1="225.63" y1="109.56" x2="225.63" y2="1760.14"/><line class="cls-7" x1="244.47" y1="109.56" x2="244.47" y2="1760.14"/><line class="cls-7" x1="263.31" y1="109.56" x2="263.31" y2="1760.14"/><line class="cls-7" x1="282.15" y1="109.56" x2="282.15" y2="1760.14"/><line class="cls-7" x1="300.98" y1="109.56" x2="300.98" y2="1760.14"/><line class="cls-7" x1="319.82" y1="109.56" x2="319.82" y2="1760.14"/><line class="cls-7" x1="338.66" y1="109.56" x2="338.66" y2="1760.14"/><line class="cls-7" x1="357.5" y1="109.56" x2="357.5" y2="1760.14"/><line class="cls-7" x1="376.33" y1="109.56" x2="376.33" y2="1760.14"/><line class="cls-7" x1="395.17" y1="109.56" x2="395.17" y2="1760.14"/><line class="cls-7" x1="414.01" y1="109.56" x2="414.01" y2="1760.14"/><line class="cls-7" x1="432.85" y1="109.56" x2="432.85" y2="1760.14"/><line class="cls-7" x1="451.69" y1="109.56" x2="451.69" y2="1760.14"/><line class="cls-7" x1="470.52" y1="109.56" x2="470.52" y2="1760.14"/><line class="cls-7" x1="489.36" y1="109.56" x2="489.36" y2="1760.14"/><line class="cls-7" x1="508.2" y1="109.56" x2="508.2" y2="1760.14"/><line class="cls-7" x1="527.04" y1="109.56" x2="527.04" y2="1760.14"/><line class="cls-7" x1="545.88" y1="109.56" x2="545.88" y2="1760.14"/><line class="cls-7" x1="564.71" y1="109.56" x2="564.71" y2="1760.14"/><line class="cls-7" x1="583.55" y1="109.56" x2="583.55" y2="1760.14"/><line class="cls-7" x1="602.39" y1="109.56" x2="602.39" y2="1760.14"/><line class="cls-7" x1="621.23" y1="109.56" x2="621.23" y2="1760.14"/><line class="cls-7" x1="640.07" y1="109.56" x2="640.07" y2="1760.14"/><line class="cls-7" x1="658.9" y1="109.56" x2="658.9" y2="1760.14"/><line class="cls-7" x1="677.74" y1="109.56" x2="677.74" y2="1760.14"/><line class="cls-7" x1="696.58" y1="109.56" x2="696.58" y2="1760.14"/><line class="cls-7" x1="715.42" y1="109.56" x2="715.42" y2="1760.14"/><line class="cls-7" x1="734.26" y1="109.56" x2="734.26" y2="1760.14"/><line class="cls-7" x1="753.09" y1="109.56" x2="753.09" y2="1760.14"/><line class="cls-7" x1="771.93" y1="109.56" x2="771.93" y2="1760.14"/><line class="cls-7" x1="790.77" y1="109.56" x2="790.77" y2="1760.14"/><line class="cls-7" x1="809.61" y1="109.56" x2="809.61" y2="1760.14"/><line class="cls-7" x1="828.44" y1="109.56" x2="828.44" y2="1760.14"/><line class="cls-7" x1="847.28" y1="109.56" x2="847.28" y2="1760.14"/><line class="cls-7" x1="866.12" y1="109.56" x2="866.12" y2="1760.14"/><line class="cls-7" x1="884.96" y1="109.56" x2="884.96" y2="1760.14"/><line class="cls-7" x1="903.8" y1="109.56" x2="903.8" y2="1760.14"/><line class="cls-7" x1="922.63" y1="109.56" x2="922.63" y2="1760.14"/><line class="cls-7" x1="941.47" y1="109.56" x2="941.47" y2="1760.14"/><line class="cls-7" x1="960.31" y1="109.56" x2="960.31" y2="1760.14"/><line class="cls-7" x1="979.15" y1="109.56" x2="979.15" y2="1760.14"/><line class="cls-7" x1="997.99" y1="109.56" x2="997.99" y2="1760.14"/><line class="cls-7" x1="1016.82" y1="109.56" x2="1016.82" y2="1760.14"/><line class="cls-7" x1="1035.66" y1="109.56" x2="1035.66" y2="1760.14"/><line class="cls-7" x1="1550.13" y1="2.38" x2="-100.46" y2="2.38"/><line class="cls-7" x1="1550.13" y1="21.21" x2="-100.46" y2="21.21"/><line class="cls-7" x1="1550.13" y1="40.05" x2="-100.46" y2="40.05"/><line class="cls-7" x1="1550.13" y1="58.89" x2="-100.46" y2="58.89"/><line class="cls-7" x1="1550.13" y1="77.73" x2="-100.46" y2="77.73"/><line class="cls-7" x1="1550.13" y1="96.56" x2="-100.46" y2="96.56"/><line class="cls-7" x1="1550.13" y1="115.4" x2="-100.46" y2="115.4"/><line class="cls-7" x1="1550.13" y1="134.24" x2="-100.46" y2="134.24"/><line class="cls-7" x1="1550.13" y1="153.08" x2="-100.46" y2="153.08"/><line class="cls-7" x1="1550.13" y1="171.92" x2="-100.46" y2="171.92"/><line class="cls-7" x1="1550.13" y1="190.75" x2="-100.46" y2="190.75"/><line class="cls-7" x1="1550.13" y1="209.59" x2="-100.46" y2="209.59"/><line class="cls-7" x1="1550.13" y1="228.43" x2="-100.46" y2="228.43"/><line class="cls-7" x1="1550.13" y1="247.27" x2="-100.46" y2="247.27"/><line class="cls-7" x1="1550.13" y1="266.11" x2="-100.46" y2="266.11"/><line class="cls-7" x1="1550.13" y1="284.94" x2="-100.46" y2="284.94"/></g></g></svg>