<svg xmlns="http://www.w3.org/2000/svg" xmlns:xlink="http://www.w3.org/1999/xlink" viewBox="0 0 1050.49 293.56"><defs><style>.cls-1,.cls-3,.cls-5,.cls-6{fill:none;}.cls-2{clip-path:url(#clip-path);}.cls-3{stroke:#919396;}.cls-3,.cls-5,.cls-6{stroke-miterlimit:10;}.cls-3,.cls-6{stroke-width:0.5px;}.cls-4{fill:#717171;}.cls-5,.cls-6{stroke:#6d6e71;}.cls-5{stroke-width:0.75px;}</style><clipPath id="clip-path"><rect class="cls-1" x="0.38" y="0.38" width="1049.74" height="292.81"/></clipPath></defs><g id="hi"><g class="cls-2"><line class="cls-3" x1="18.41" y1="-217.74" x2="18.41" y2="1432.85"/><line class="cls-3" x1="37.25" y1="-217.74" x2="37.25" y2="1432.85"/><line class="cls-3" x1="56.09" y1="-217.74" x2="56.09" y2="1432.85"/><line class="cls-3" x1="74.93" y1="-217.74" x2="74.93" y2="1432.85"/><line class="cls-3" x1="93.77" y1="-217.74" x2="93.77" y2="1432.85"/><line class="cls-3" x1="112.6" y1="-217.74" x2="112.6" y2="1432.85"/><line class="cls-3" x1="131.44" y1="-217.74" x2="131.44" y2="1432.85"/><line class="cls-3" x1="150.28" y1="-217.74" x2="150.28" y2="1432.85"/><line class="cls-3" x1="169.12" y1="-217.74" x2="169.12" y2="1432.85"/><line class="cls-3" x1="187.96" y1="-217.74" x2="187.96" y2="1432.85"/><line class="cls-3" x1="206.79" y1="-217.74" x2="206.79" y2="1432.85"/><line class="cls-3" x1="225.63" y1="-217.74" x2="225.63" y2="1432.85"/><line class="cls-3" x1="244.47" y1="-217.74" x2="244.47" y2="1432.85"/><line class="cls-3" x1="263.31" y1="-217.74" x2="263.31" y2="1432.85"/><line class="cls-3" x1="282.15" y1="-217.74" x2="282.15" y2="1432.85"/><line class="cls-3" x1="300.98" y1="-217.74" x2="300.98" y2="1432.85"/><line class="cls-3" x1="319.82" y1="-217.74" x2="319.82" y2="1432.85"/><line class="cls-3" x1="338.66" y1="-217.74" x2="338.66" y2="1432.85"/><line class="cls-3" x1="357.5" y1="-217.74" x2="357.5" y2="1432.85"/><line class="cls-3" x1="376.33" y1="-217.74" x2="376.33" y2="1432.85"/><line class="cls-3" x1="395.17" y1="-217.74" x2="395.17" y2="1432.85"/><line class="cls-3" x1="414.01" y1="-217.74" x2="414.01" y2="1432.85"/><line class="cls-3" x1="432.85" y1="-217.74" x2="432.85" y2="1432.85"/><line class="cls-3" x1="451.69" y1="-217.74" x2="451.69" y2="1432.85"/><line class="cls-3" x1="470.52" y1="-217.74" x2="470.52" y2="1432.85"/><line class="cls-3" x1="489.36" y1="-217.74" x2="489.36" y2="1432.85"/><line class="cls-3" x1="508.2" y1="-217.74" x2="508.2" y2="1432.85"/><line class="cls-3" x1="527.04" y1="-217.74" x2="527.04" y2="1432.85"/><line class="cls-3" x1="545.88" y1="-217.74" x2="545.88" y2="1432.85"/><line class="cls-3" x1="564.71" y1="-217.74" x2="564.71" y2="1432.85"/><line class="cls-3" x1="583.55" y1="-217.74" x2="583.55" y2="1432.85"/><line class="cls-3" x1="602.39" y1="-217.74" x2="602.39" y2="1432.85"/><line class="cls-3" x1="621.23" y1="-217.74" x2="621.23" y2="1432.85"/><line class="cls-3" x1="640.07" y1="-217.74" x2="640.07" y2="1432.85"/><line class="cls-3" x1="658.9" y1="-217.74" x2="658.9" y2="1432.85"/><line class="cls-3" x1="677.74" y1="-217.74" x2="677.74" y2="1432.85"/><line class="cls-3" x1="696.58" y1="-217.74" x2="696.58" y2="1432.85"/><line class="cls-3" x1="715.42" y1="-217.74" x2="715.42" y2="1432.85"/><line class="cls-3" x1="734.26" y1="-217.74" x2="734.26" y2="1432.85"/><line class="cls-3" x1="753.09" y1="-217.74" x2="753.09" y2="1432.85"/><line class="cls-3" x1="771.93" y1="-217.74" x2="771.93" y2="1432.85"/><line class="cls-3" x1="790.77" y1="-217.74" x2="790.77" y2="1432.85"/><line class="cls-3" x1="809.61" y1="-217.74" x2="809.61" y2="1432.85"/><line class="cls-3" x1="828.44" y1="-217.74" x2="828.44" y2="1432.85"/><line class="cls-3" x1="847.28" y1="-217.74" x2="847.28" y2="1432.85"/><line class="cls-3" x1="866.12" y1="-217.74" x2="866.12" y2="1432.85"/><line class="cls-3" x1="884.96" y1="-217.74" x2="884.96" y2="1432.85"/><line class="cls-3" x1="903.8" y1="-217.74" x2="903.8" y2="1432.85"/><line class="cls-3" x1="922.63" y1="-217.74" x2="922.63" y2="1432.85"/><line class="cls-3" x1="941.47" y1="-217.74" x2="941.47" y2="1432.85"/><line class="cls-3" x1="960.31" y1="-217.74" x2="960.31" y2="1432.85"/><line class="cls-3" x1="979.15" y1="-217.74" x2="979.15" y2="1432.85"/><line class="cls-3" x1="997.99" y1="-217.74" x2="997.99" y2="1432.85"/><line class="cls-3" x1="1016.82" y1="-217.74" x2="1016.82" y2="1432.85"/><line class="cls-3" x1="1035.66" y1="-217.74" x2="1035.66" y2="1432.85"/><line class="cls-3" x1="1550.13" y1="14.16" x2="-100.46" y2="14.16"/><line class="cls-3" x1="1550.13" y1="33" x2="-100.46" y2="33"/><line class="cls-3" x1="1550.13" y1="51.84" x2="-100.46" y2="51.84"/><line class="cls-3" x1="1550.13" y1="70.67" x2="-100.46" y2="70.67"/><line class="cls-3" x1="1550.13" y1="89.51" x2="-100.46" y2="89.51"/><line class="cls-3" x1="1550.13" y1="108.35" x2="-100.46" y2="108.35"/><line class="cls-3" x1="1550.13" y1="127.19" x2="-100.46" y2="127.19"/><line class="cls-3" x1="1550.13" y1="146.02" x2="-100.46" y2="146.02"/><line class="cls-3" x1="1550.13" y1="164.86" x2="-100.46" y2="164.86"/><line class="cls-3" x1="1550.13" y1="183.7" x2="-100.46" y2="183.7"/><line class="cls-3" x1="1550.13" y1="202.54" x2="-100.46" y2="202.54"/><line class="cls-3" x1="1550.13" y1="221.38" x2="-100.46" y2="221.38"/><line class="cls-3" x1="1550.13" y1="240.21" x2="-100.46" y2="240.21"/><line class="cls-3" x1="1550.13" y1="259.05" x2="-100.46" y2="259.05"/><line class="cls-3" x1="1550.13" y1="277.89" x2="-100.46" y2="277.89"/></g><path class="cls-4" d="M319.76,128.5h-8.24V118.44h18.75v-10H343v10h19V128.5h-8.06a19.39,19.39,0,0,1,4.62,12.6c0,11.41-9.61,20.47-21.74,20.47s-21.57-9.06-21.57-20.47A19.31,19.31,0,0,1,319.76,128.5Zm18.48,39.33V184h43.49v10.33H325.47V167.83Zm-1.44-16.77c5.52,0,9.24-4.44,9.24-10.78s-3.72-11.23-9.24-11.23-9.25,5-9.25,11.23S331.27,151.06,336.8,151.06Zm43.58-40.59v23h13.41V143.9H380.38v27.37h-12.6v-60.8Z"/><path class="cls-4" d="M448.11,146.62v10H403.17V128.78h27.36V122H403.17V111.83h39.77v27.09H415.58v7.7ZM414.67,162.3h54.82v32.89H414.67Zm12.69,10.24v12.13H456.8V172.54Zm42.13-62.07v47.75h-12.6V110.47Z"/><path class="cls-4" d="M520.81,162.48v10.69H485.93V115.55h32.16v10.68H498.61v36.25Zm35.61-52v83.81H544.19V149.79h-6.07v41.77H526.25V111.47h11.87v27.72h6.07V110.47Z"/><path class="cls-4" d="M574.59,127.69h-7.7V117.54h18.75v-9.88h12.69v9.88h19v10.15h-7.62a18.8,18.8,0,0,1,3.9,11.32c0,10.87-9.42,19.75-21.47,19.75s-21.39-8.88-21.39-19.75A18.71,18.71,0,0,1,574.59,127.69Zm48.56,67.5V174.71H580.84V164.29h54.91v30.9Zm-31-46.84c5.62,0,9.24-4.45,9.24-10.07s-3.62-10.14-9.24-10.14-9.25,4.53-9.25,10.14S586.46,148.35,592.17,148.35Zm43.58-37.88v20.11h13.41v10.61H635.75v18.57h-12.6V110.47Z"/><path class="cls-4" d="M671,175.17V148.62h12.41v26.55h8.16V148.62H704v26.55h27.82v10.41H653.92V175.17Zm50.56-11.7H709.1V127.05H663.16V116.36H721.6Z"/><path class="cls-4" d="M794.67,167.83v10.59H739.49V167.83ZM743.29,135c0-13,10.88-22,23.66-22,12.41,0,23.73,9.07,23.73,22,0,13.14-11,22-23.73,22S743.29,148.26,743.29,135Zm34.53,0c0-6.89-4.9-11.51-10.87-11.51s-11,4.62-11,11.51,4.89,11.59,11,11.59S777.82,142,777.82,135Zm34-24.56v83.81H799.2V110.47Z"/><path class="cls-4" d="M824.16,175.17h19.75V162.84H834.4V133.21h44.67v-8.52H834.4V114.28h57.36v29.17H847.18v9H893v10.42H882.24v12.33h19.84v10.41H824.16Zm45.67,0V162.84H856.42v12.33Z"/><path class="cls-4" d="M943.08,156.77v11.15H930.67V156.77H909.74V146.62H964v10.15Zm15.5-30.08c0,9.51-8.16,17.67-21.2,17.67-13.32,0-21.48-8.07-21.48-17.49,0-9.6,7.89-17.94,21.48-17.94C950.42,108.93,958.58,117.18,958.58,126.69ZM937.29,184H983.5v10.33h-59V170.54h12.78Zm9.06-57.26c0-4-3.63-7.62-9-7.62-5.71,0-9.25,3.63-9.25,7.62s3.54,7.61,9.25,7.61C942.72,134.3,946.35,130.77,946.35,126.69Zm23,43.58H952.23v-9.78h17.13V110.38H982v65.15H969.36Z"/><path class="cls-4" d="M59.84,118.49c10.17,1,9.29,4.07,16.53,11.28,9.65,9.61,19.09,10.14,25.81,4.84-4.06-1.25-8.74-4.6-11.34-7.06-7.29-6.87-9.33-15.94-30.89-9.73-1,.28-.73.6-.11.67"/><path class="cls-4" d="M280.43,104.06C247.58,89.41,214,97.69,187,121.81c-26.31,23.52-44.29,51.19-79.59,51.79,27,9.38,80.3,5.86,109.52-23.36.77-.81.18-.71-.32-.43-16.9,10.24-43.66,15.27-55.18,11.49,30.59-19.8,55-54.43,118.85-55.93,2.34-.26,2.25-.37.13-1.31"/><path class="cls-4" d="M105,158c-6,.08-12.15-3.28-15.77-5.7-5.31-3.56-9.06-8.7-13.19-12.74-6.72-6.62-18-11.53-33.41-5.36-.83.33-1,.73-.18.77,14.15.73,13.67,2.44,25.54,15.62,8,8.91,29.42,11.42,37,7.41"/><path class="cls-4" d="M252.2,87.36c-5-3-23.82-12.62-42.14-10.72-9.5,1-17.77,3.5-26.09,9.46-3.93,2.53-6.65,4.44-9,6.21h0l-1.36,1a65.27,65.27,0,0,1-17.92,9.6c-1.34.41-2.53.73-3.47,1,12.3-15.75,25.55-30.81,41.91-37.2a.51.51,0,0,0,0-1c-19.88-5-40.68-2.19-57.07,23-18.67,28.68-29.81,62.89-55.62,50.53,15.94,15.17,35.62,8.61,52.54-11.88,2.38-2.91,4.79-5.94,7.17-9l2.82-3.67a55.39,55.39,0,0,0,17.39-4l-5.57,7.65c-18.5,25.38-43.33,55.84-80.19,40.79,42.55,28.31,74.38-12.4,90.19-27.28,19.57-18.38,39.26-41.93,86.52-43.23,1.07,0,1.84-.17,0-1.28"/><rect class="cls-5" x="0.38" y="0.38" width="1049.74" height="292.81"/><rect class="cls-6" x="0.38" y="0.38" width="1049.74" height="292.81"/></g></svg>