<svg xmlns="http://www.w3.org/2000/svg" viewBox="0 0 1053.12 142.79"><defs><style>.cls-1{fill:none;stroke:#6d6e71;stroke-miterlimit:10;stroke-width:0.75px;}.cls-2{fill:#3e3a39;}.cls-3{fill:#717171;}.cls-4{fill:#e76076;}</style></defs><g id="hi"><rect class="cls-1" x="526.58" y="0.38" width="526.17" height="142.04"/><path class="cls-2" d="M607.17,102.72h2.9v6.46h6.2v-6.46h2.9v16h-2.9v-7h-6.2v7h-2.9Z"/><path class="cls-2" d="M630.42,115h-5.9l-1.22,3.72h-3.09l5.64-16h3.22l5.66,16h-3.1Zm-5.09-2.5h4.28l-2.14-6.56Z"/><path class="cls-2" d="M635.77,102.72h2.89v13.44h6.45v2.56h-9.34Z"/><path class="cls-2" d="M646.16,102.72h2.89v13.44h6.45v2.56h-9.34Z"/><path class="cls-2" d="M660.31,109.37l3.7-6.65h3.11l-5.35,9.49v6.51h-2.9v-6.51l-5.35-9.49h3.09Z"/><path class="cls-2" d="M675.14,115.81l-4.28-7.69v10.6h-2.69v-16h2.71l5.17,9.51,5.16-9.51h2.71v16h-2.69v-10.6l-4.29,7.69Z"/><path class="cls-2" d="M702.09,113.15a5.82,5.82,0,1,1-11.63,0V102.72h2.89v10.66a2.92,2.92,0,1,0,5.84,0V102.72h2.9Z"/><path class="cls-2" d="M704.34,102.72h2.85l6.59,11v-11h2.76v16h-2.86l-6.59-11.06v11.06h-2.75Z"/><path class="cls-2" d="M722,102.72v16H719.1v-16Z"/><path class="cls-2" d="M730.6,115.08l4.21-12.36h3.05l-5.66,16H729l-5.64-16h3Z"/><path class="cls-2" d="M738.9,102.72h9.59v2.56h-6.7v4.13h6.15v2.53h-6.15v4.24h6.9v2.54H738.9Z"/><path class="cls-2" d="M758.45,112.17l3.21,6.55h-3.17l-2.77-6.11h-2.29v6.11h-2.89v-16h5.38c3.34,0,5.4,1.87,5.4,4.94A4.48,4.48,0,0,1,758.45,112.17Zm-2.73-6.93h-2.29v4.88h2.29c1.76,0,2.69-.83,2.69-2.46S757.48,105.24,755.72,105.24Z"/><path class="cls-2" d="M764.14,114.41a5.47,5.47,0,0,0,3.87,2c1.65,0,2.83-.83,2.83-2.14,0-1.12-.71-2.06-3.28-2.62-3.19-.68-4.81-2.32-4.81-4.69,0-2.68,2.12-4.53,5.11-4.53a6.88,6.88,0,0,1,5.1,2l-1.64,2.1A4.91,4.91,0,0,0,768,105c-1.34,0-2.33.68-2.33,1.74s.87,2,3.12,2.49c3.57.84,5,2.5,5,5,0,2.78-2.12,4.74-5.66,4.74a7.48,7.48,0,0,1-5.69-2.56Z"/><path class="cls-2" d="M778.6,102.72v16h-2.9v-16Z"/><path class="cls-2" d="M784.25,105.3h-4.1v-2.58h11.08v2.58h-4.09v13.42h-2.89Z"/><path class="cls-2" d="M798.06,109.37l3.7-6.65h3.11l-5.36,9.49v6.51h-2.89v-6.51l-5.36-9.49h3.1Z"/><path class="cls-2" d="M817.18,115.81l-4.29-7.69v10.6H810.2v-16h2.71l5.18,9.51,5.15-9.51H826v16h-2.69v-10.6L819,115.81Z"/><path class="cls-2" d="M828.21,102.72h9.58v2.56H831.1v4.13h6.15v2.53H831.1v4.24H838v2.54h-9.78Z"/><path class="cls-2" d="M845,102.72c4.75,0,7.8,3.08,7.8,8s-3,8-7.8,8h-5.16v-16Zm-2.27,2.62v10.78h2.2c2.9,0,4.92-1.71,4.92-5.4s-2-5.38-4.92-5.38Z"/><path class="cls-2" d="M857.35,102.72v16h-2.89v-16Z"/><path class="cls-2" d="M859,110.72c0-4.66,3.09-8.27,7.72-8.27a8.41,8.41,0,0,1,5.28,1.83l-1.46,2.22a6.26,6.26,0,0,0-3.82-1.45c-2.81,0-4.79,2.47-4.79,5.67s2,5.67,4.79,5.67a6.29,6.29,0,0,0,3.92-1.54c.53.73,1,1.46,1.54,2.18a8.31,8.31,0,0,1-5.46,2C862.1,119,859,115.39,859,110.72Z"/><path class="cls-2" d="M882.43,115h-5.9l-1.21,3.72h-3.1l5.64-16h3.22l5.66,16h-3.09Zm-5.09-2.5h4.29l-2.15-6.56Z"/><path class="cls-2" d="M887.79,102.72h2.89v13.44h6.45v2.56h-9.34Z"/><path class="cls-2" d="M901.55,110.72c0-4.66,3.09-8.27,7.72-8.27a8.41,8.41,0,0,1,5.28,1.83l-1.45,2.22a6.31,6.31,0,0,0-3.83-1.45c-2.81,0-4.79,2.47-4.79,5.67s2,5.67,4.79,5.67a6.34,6.34,0,0,0,3.93-1.54c.52.73,1,1.46,1.53,2.18a8.29,8.29,0,0,1-5.46,2C904.64,119,901.55,115.39,901.55,110.72Z"/><path class="cls-2" d="M916,102.72h9.58v2.56h-6.69v4.13H925v2.53h-6.15v4.24h6.89v2.54H916Z"/><path class="cls-2" d="M927.62,102.72h2.85l6.59,11v-11h2.75v16H937l-6.59-11.06v11.06h-2.75Z"/><path class="cls-2" d="M945.16,105.3h-4.1v-2.58h11.08v2.58h-4.09v13.42h-2.89Z"/><path class="cls-2" d="M953.38,102.72H963v2.56h-6.69v4.13h6.15v2.53h-6.15v4.24h6.89v2.54h-9.79Z"/><path class="cls-2" d="M972.93,112.17l3.22,6.55H973l-2.77-6.11h-2.28v6.11H965v-16h5.37c3.34,0,5.41,1.87,5.41,4.94A4.48,4.48,0,0,1,972.93,112.17Zm-2.73-6.93h-2.28v4.88h2.28c1.76,0,2.69-.83,2.69-2.46S972,105.24,970.2,105.24Z"/><path class="cls-3" d="M735,49.77c5.56.54,5.08,2.23,9,6.17,5.28,5.25,10.44,5.54,14.11,2.65A18.2,18.2,0,0,1,752,54.73c-4-3.76-5.11-8.72-16.9-5.32-.52.15-.4.33-.06.36"/><path class="cls-3" d="M855.63,41.88c-18-8-36.32-3.48-51.08,9.71-14.38,12.86-24.22,28-43.52,28.32,14.78,5.12,43.91,3.2,59.89-12.77.42-.45.09-.39-.17-.24-9.25,5.6-23.88,8.35-30.18,6.28,16.73-10.82,30.09-29.76,65-30.58,1.28-.14,1.23-.2.07-.72"/><path class="cls-3" d="M759.69,71.36c-3.28,0-6.64-1.79-8.62-3.12-2.91-1.94-5-4.75-7.21-7-3.68-3.62-9.84-6.31-18.27-2.93-.46.18-.56.4-.1.42,7.74.4,7.47,1.34,14,8.54,4.4,4.87,16.09,6.25,20.24,4"/><path class="cls-4" d="M840.19,32.75c-2.74-1.63-13-6.9-23-5.86a28.27,28.27,0,0,0-14.27,5.17c-2.15,1.39-3.63,2.43-4.93,3.4h0l-.75.57a35.53,35.53,0,0,1-9.79,5.25l-1.9.54c6.72-8.61,14-16.84,22.92-20.34a.28.28,0,0,0,0-.54c-10.87-2.73-22.24-1.2-31.2,12.58C767,49.2,760.9,67.9,746.78,61.14c8.72,8.3,19.48,4.71,28.74-6.5,1.29-1.58,2.61-3.24,3.91-4.94l1.55-2a30.23,30.23,0,0,0,9.5-2.17l-3,4.18C777.32,63.58,763.75,80.24,743.59,72c23.27,15.48,40.67-6.78,49.32-14.92,10.7-10.05,21.46-22.93,47.31-23.64.58,0,1-.09,0-.7"/><rect class="cls-1" x="263.51" y="0.38" width="244.38" height="142.04"/><path class="cls-2" d="M300.31,88.09h-2.14V85.4h4.88V82.74h3.3V85.4h4.95v2.69h-2.1a5.28,5.28,0,0,1,1.2,3.36,5.64,5.64,0,0,1-11.27,0A5.27,5.27,0,0,1,300.31,88.09Zm4.81,10.51v4.31h11.31v2.76H301.8V98.6Zm-.38-4.48c1.44,0,2.41-1.19,2.41-2.88s-1-3-2.41-3-2.4,1.33-2.4,3S303.31,94.12,304.74,94.12Zm11.34-10.85v6.15h3.49v2.79h-3.49v7.31H312.8V83.27Z"/><path class="cls-2" d="M333.7,92.93V95.6H322V88.16h7.12V86.35H322V83.63h10.35v7.25h-7.12v2.05ZM325,97.12h14.26v8.79H325Zm3.3,2.74v3.24H336V99.86Zm11-16.59V96H336V83.27Z"/><path class="cls-2" d="M352.63,97.17V100h-9.08V84.63h8.37v2.86h-5.07v9.68Zm9.26-13.9v22.4h-3.18V93.78h-1.58v11.16H354V83.54h3.09V91h1.58V83.27Z"/><path class="cls-2" d="M366.62,87.87h-2V85.16h4.88V82.52h3.3v2.64h4.95v2.71h-2a5.09,5.09,0,0,1,1,3,5.58,5.58,0,0,1-11.15,0A5.07,5.07,0,0,1,366.62,87.87Zm12.63,18v-5.47h-11V97.65h14.28v8.26Zm-8.06-12.52a2.72,2.72,0,1,0-2.4-2.69A2.47,2.47,0,0,0,371.19,93.39Zm11.34-10.12v5.38H386v2.83h-3.49v5h-3.28V83.27Z"/><path class="cls-2" d="M391.72,100.56v-7.1h3.22v7.1h2.13v-7.1h3.22v7.1h7.24v2.78H387.26v-2.78Zm13.15-3.12h-3.26V87.7H389.67V84.85h15.2Z"/><path class="cls-2" d="M423.88,98.6v2.83H409.53V98.6Zm-13.36-8.77A5.93,5.93,0,0,1,416.67,84a6,6,0,0,1,6.17,5.88,6.17,6.17,0,0,1-12.32,0Zm9,0a2.85,2.85,0,1,0-2.83,3.1A2.88,2.88,0,0,0,419.5,89.83Zm8.84-6.56v22.4h-3.28V83.27Z"/><path class="cls-2" d="M431.56,100.56h5.14V97.27h-2.48V89.35h11.62V87.07H434.22V84.29h14.92v7.8h-11.6v2.39h11.93v2.79h-2.8v3.29h5.16v2.78H431.56Zm11.88,0V97.27H440v3.29Z"/><path class="cls-2" d="M462.5,95.64v3h-3.23v-3h-5.44V92.93h14.11v2.71Zm4-8c0,2.54-2.12,4.72-5.52,4.72s-5.58-2.16-5.58-4.68,2.05-4.79,5.58-4.79S466.53,85.06,466.53,87.61ZM461,102.91h12v2.76H457.67V99.32H461Zm2.36-15.3a2.4,2.4,0,1,0-2.34,2A2.18,2.18,0,0,0,463.35,87.61Zm6,11.64h-4.46V96.64h4.46V83.25h3.29v17.41h-3.29Z"/><path class="cls-2" d="M298.43,113.9h1.26v2.82h2.71V113.9h1.27v7H302.4v-3h-2.71v3h-1.26Z"/><path class="cls-2" d="M309,119.27h-2.58l-.53,1.62h-1.36l2.47-7h1.41l2.47,7h-1.35Zm-2.23-1.09h1.87l-.93-2.87Z"/><path class="cls-2" d="M311.8,113.9h1.27v5.88h2.82v1.11H311.8Z"/><path class="cls-2" d="M316.78,113.9h1.27v5.88h2.81v1.11h-4.08Z"/><path class="cls-2" d="M323.4,116.81,325,113.9h1.36L324,118.05v2.84h-1.27v-2.84l-2.34-4.15h1.35Z"/><path class="cls-2" d="M330.32,119.62l-1.87-3.36v4.63h-1.18v-7h1.19l2.26,4.16,2.26-4.16h1.18v7H333v-4.63l-1.87,3.36Z"/><path class="cls-2" d="M343,118.46a2.54,2.54,0,0,1-5.08,0V113.9h1.26v4.66a1.28,1.28,0,1,0,2.56,0V113.9H343Z"/><path class="cls-2" d="M344.4,113.9h1.24l2.88,4.83V113.9h1.21v7h-1.25l-2.88-4.83v4.83h-1.2Z"/><path class="cls-2" d="M352.55,113.9v7h-1.27v-7Z"/><path class="cls-2" d="M356.74,119.3l1.84-5.4h1.33l-2.47,7H356l-2.46-7h1.33Z"/><path class="cls-2" d="M360.81,113.9H365V115h-2.93v1.81h2.69v1.11h-2.69v1.86h3v1.1h-4.28Z"/><path class="cls-2" d="M369.79,118l1.41,2.86h-1.39l-1.21-2.67h-1v2.67h-1.27v-7h2.36a2.1,2.1,0,0,1,2.36,2.16A2,2,0,0,1,369.79,118Zm-1.19-3h-1v2.13h1c.77,0,1.17-.36,1.17-1.07S369.37,115,368.6,115Z"/><path class="cls-2" d="M372.72,119a2.39,2.39,0,0,0,1.69.88c.72,0,1.23-.36,1.23-.93s-.31-.9-1.43-1.15c-1.39-.3-2.1-1-2.1-2a2,2,0,0,1,2.23-2,3,3,0,0,1,2.23.89l-.71.92a2.19,2.19,0,0,0-1.45-.68c-.59,0-1,.3-1,.76s.38.86,1.36,1.09c1.57.36,2.17,1.09,2.17,2.18S376,121,374.44,121a3.26,3.26,0,0,1-2.48-1.12Z"/><path class="cls-2" d="M379.47,113.9v7h-1.26v-7Z"/><path class="cls-2" d="M382.38,115h-1.8V113.9h4.85V115h-1.79v5.87h-1.26Z"/><path class="cls-2" d="M388.85,116.81l1.61-2.91h1.37l-2.35,4.15v2.84h-1.26v-2.84l-2.34-4.15h1.35Z"/><path class="cls-2" d="M398.07,119.62l-1.87-3.36v4.63H395v-7h1.19l2.26,4.16,2.25-4.16h1.19v7h-1.18v-4.63l-1.87,3.36Z"/><path class="cls-2" d="M403.33,113.9h4.19V115H404.6v1.81h2.68v1.11H404.6v1.86h3v1.1h-4.28Z"/><path class="cls-2" d="M411.11,113.9a3.5,3.5,0,0,1,0,7h-2.25v-7Zm-1,1.14v4.72h1c1.26,0,2.14-.75,2.14-2.36s-.88-2.36-2.14-2.36Z"/><path class="cls-2" d="M417,113.9v7h-1.26v-7Z"/><path class="cls-2" d="M418.1,117.4a3.38,3.38,0,0,1,3.38-3.62,3.68,3.68,0,0,1,2.31.8l-.64,1a2.76,2.76,0,0,0-1.67-.64,2.52,2.52,0,0,0,0,5,2.69,2.69,0,0,0,1.71-.68l.68,1a3.67,3.67,0,0,1-2.39.85A3.37,3.37,0,0,1,418.1,117.4Z"/><path class="cls-2" d="M428.78,119.27H426.2l-.53,1.62h-1.35l2.47-7h1.4l2.48,7h-1.36Zm-2.22-1.09h1.87l-.94-2.87Z"/><path class="cls-2" d="M431.56,113.9h1.27v5.88h2.82v1.11h-4.09Z"/><path class="cls-2" d="M438.44,117.4a3.38,3.38,0,0,1,3.38-3.62,3.63,3.63,0,0,1,2.3.8l-.63,1a2.78,2.78,0,0,0-1.67-.64,2.52,2.52,0,0,0,0,5,2.71,2.71,0,0,0,1.71-.68l.67,1a3.62,3.62,0,0,1-2.38.85A3.37,3.37,0,0,1,438.44,117.4Z"/><path class="cls-2" d="M445.19,113.9h4.19V115h-2.93v1.81h2.69v1.11h-2.69v1.86h3v1.1h-4.27Z"/><path class="cls-2" d="M450.71,113.9H452l2.88,4.83V113.9H456v7H454.8l-2.89-4.83v4.83h-1.2Z"/><path class="cls-2" d="M458.82,115H457V113.9h4.84V115h-1.79v5.87h-1.26Z"/><path class="cls-2" d="M462.85,113.9H467V115h-2.92v1.81h2.68v1.11h-2.68v1.86h3v1.1h-4.28Z"/><path class="cls-2" d="M471.83,118l1.41,2.86h-1.39l-1.21-2.67h-1v2.67h-1.26v-7h2.35a2.1,2.1,0,0,1,2.36,2.16A2,2,0,0,1,471.83,118Zm-1.19-3h-1v2.13h1c.77,0,1.17-.36,1.17-1.07S471.41,115,470.64,115Z"/><path class="cls-3" d="M343.47,44.88c4.29.41,3.92,1.71,7,4.75,4.06,4,8,4.27,10.87,2a14,14,0,0,1-4.77-3c-3.08-2.89-3.94-6.71-13-4.1-.41.12-.31.26,0,.29"/><path class="cls-3" d="M436.43,38.8c-13.85-6.18-28-2.69-39.37,7.48C386,56.19,378.4,67.85,363.52,68.1c11.39,4,33.84,2.47,46.16-9.84.32-.34.07-.3-.14-.19-7.12,4.32-18.4,6.44-23.25,4.85,12.89-8.35,23.19-22.94,50.08-23.57,1-.11.95-.16.06-.55"/><path class="cls-3" d="M362.49,61.52c-2.53,0-5.12-1.39-6.65-2.41-2.23-1.5-3.81-3.66-5.55-5.37-2.84-2.79-7.59-4.86-14.08-2.26-.36.14-.43.31-.08.33,6,.3,5.76,1,10.76,6.58,3.39,3.75,12.4,4.82,15.6,3.13"/><path class="cls-4" d="M424.53,31.76c-2.11-1.26-10-5.32-17.76-4.52a21.74,21.74,0,0,0-11,4c-1.66,1.06-2.8,1.87-3.81,2.61h0l-.57.44a27.37,27.37,0,0,1-7.55,4c-.57.18-1.07.31-1.46.42,5.18-6.64,10.76-13,17.66-15.68a.21.21,0,0,0,0-.41c-8.37-2.11-17.14-.92-24,9.69-7.87,12.09-12.56,26.51-23.44,21.3,6.72,6.39,15,3.62,22.15-5,1-1.22,2-2.5,3-3.81l1.2-1.55a23.24,23.24,0,0,0,7.32-1.67l-2.35,3.22c-7.79,10.7-18.25,23.53-33.79,17.19,17.93,11.93,31.35-5.23,38-11.49,8.25-7.75,16.54-17.67,36.46-18.22.45,0,.77-.07,0-.54"/><rect class="cls-1" x="0.38" y="0.38" width="244.38" height="142.04"/><path class="cls-2" d="M38.15,96.2H36V93.51h4.83V90.85h3.27v2.66H49V96.2H47a5.28,5.28,0,0,1,1.19,3.37,5.58,5.58,0,0,1-11.15,0A5.31,5.31,0,0,1,38.15,96.2Zm4.76,10.51V111H54.12v2.76H39.62v-7.07Zm-.37-4.48c1.43,0,2.38-1.19,2.38-2.88s-1-3-2.38-3-2.38,1.33-2.38,3S41.12,102.23,42.54,102.23ZM53.77,91.38v6.15h3.45v2.79H53.77v7.31H50.52V91.38Z"/><path class="cls-2" d="M71.24,101v2.67H59.66V96.27h7V94.46h-7V91.75H69.91V99h-7V101Zm-8.62,4.19H76.75V114H62.62ZM65.89,108v3.24h7.59V108ZM76.75,91.38v12.76H73.5V91.38Z"/><path class="cls-2" d="M90,105.28v2.86H81V92.74h8.29V95.6h-5v9.68Zm9.17-13.9v22.4H96V101.89H94.45v11.16H91.39V91.65h3.06v7.41H96V91.38Z"/><path class="cls-2" d="M103.86,96h-2V93.27h4.83V90.63H110v2.64h4.9V96h-2a5.19,5.19,0,0,1,1,3,5.53,5.53,0,0,1-11,0A5.17,5.17,0,0,1,103.86,96Zm12.51,18v-5.47h-10.9v-2.79h14.15V114Zm-8-12.52A2.72,2.72,0,1,0,106,98.82,2.45,2.45,0,0,0,108.39,101.5Zm11.23-10.12v5.38h3.45v2.83h-3.45v5h-3.25V91.38Z"/><path class="cls-2" d="M128.73,108.67v-7.09h3.2v7.09H134v-7.09h3.2v7.09h7.16v2.78H124.32v-2.78Zm13-3.12h-3.22V95.81H126.7V93h15Z"/><path class="cls-2" d="M160.6,106.71v2.83H146.38v-2.83ZM147.36,98a5.91,5.91,0,0,1,6.1-5.89A6,6,0,0,1,159.57,98a6.11,6.11,0,0,1-12.21,0Zm8.9,0a2.83,2.83,0,1,0-2.8,3.09A2.87,2.87,0,0,0,156.26,98ZM165,91.38v22.4h-3.24V91.38Z"/><path class="cls-2" d="M168.22,108.67h5.09v-3.29h-2.46V97.46h11.51V95.19H170.85V92.4h14.78v7.8H174.14v2.39H186v2.79h-2.78v3.29h5.11v2.78H168.22Zm11.76,0v-3.29h-3.45v3.29Z"/><path class="cls-2" d="M198.87,103.75v3h-3.19v-3h-5.4V101h14v2.71Zm4-8c0,2.54-2.1,4.72-5.46,4.72s-5.53-2.16-5.53-4.68,2-4.79,5.53-4.79S202.86,93.17,202.86,95.72ZM197.38,111h11.9v2.76H194.09v-6.35h3.29Zm2.33-15.3a2.37,2.37,0,1,0-2.31,2A2.16,2.16,0,0,0,199.71,95.72Zm5.93,11.64h-4.41v-2.61h4.41V91.36h3.27v17.41h-3.27Z"/><path class="cls-3" d="M80.77,51.87c4.24.41,3.88,1.72,6.9,4.75,4,4.05,8,4.28,10.77,2a13.63,13.63,0,0,1-4.73-3c-3-2.89-3.9-6.72-12.9-4.1-.4.11-.3.25,0,.28"/><path class="cls-3" d="M172.83,45.79c-13.71-6.17-27.72-2.69-39,7.48-11,9.91-18.48,21.57-33.21,21.82,11.27,4,33.51,2.47,45.7-9.84.33-.34.08-.3-.13-.18-7,4.31-18.22,6.43-23,4.84,12.77-8.34,23-22.94,49.6-23.57,1-.11.94-.15.06-.55"/><path class="cls-3" d="M99.6,68.51A12.46,12.46,0,0,1,93,66.1c-2.22-1.49-3.78-3.66-5.5-5.36-2.81-2.79-7.51-4.86-14-2.26-.34.14-.42.31-.07.32,5.9.31,5.7,1,10.66,6.59,3.35,3.75,12.27,4.81,15.44,3.12"/><path class="cls-4" d="M161,38.75c-2.09-1.25-9.93-5.32-17.58-4.52a21.4,21.4,0,0,0-10.89,4c-1.64,1.07-2.77,1.87-3.77,2.62h0l-.57.44a27.18,27.18,0,0,1-7.47,4c-.56.17-1.06.31-1.45.41,5.13-6.63,10.66-13,17.49-15.67a.22.22,0,0,0,0-.42c-8.29-2.1-17-.92-23.82,9.7-7.79,12.09-12.44,26.5-23.21,21.29,6.66,6.39,14.87,3.63,21.93-5,1-1.22,2-2.5,3-3.8l1.18-1.55a23,23,0,0,0,7.25-1.68l-2.32,3.23C113.06,62.51,102.7,75.35,87.32,69c17.75,11.93,31-5.22,37.63-11.49,8.17-7.75,16.39-17.67,36.11-18.22.45,0,.77-.07,0-.54"/></g></svg>