<svg xmlns="http://www.w3.org/2000/svg" viewBox="0 0 1053.96 88.31"><defs><style>.cls-1{fill:none;stroke:#6d6e71;stroke-miterlimit:10;stroke-width:0.75px;}.cls-2{fill:#3e3a39;}.cls-3{fill:#717171;}.cls-4{fill:#e76076;}</style></defs><g id="hi"><rect class="cls-1" x="0.38" y="0.38" width="291.49" height="87.56"/><path class="cls-2" d="M97.2,41.38H95.09V38.81h4.79V36.27h3.24v2.54H108v2.57h-2.06a5,5,0,0,1,1.18,3.22A5.54,5.54,0,0,1,96,44.6,4.94,4.94,0,0,1,97.2,41.38Zm4.72,10v4.11H113v2.64H98.66V51.42Zm-.37-4.28a2.45,2.45,0,0,0,2.36-2.75c0-1.6-1-2.87-2.36-2.87s-2.36,1.27-2.36,2.87A2.45,2.45,0,0,0,101.55,47.14Zm11.12-10.36v5.87h3.42v2.66h-3.42v7h-3.21V36.78Z"/><path class="cls-2" d="M130,46v2.54H118.49v-7.1h7V39.72h-7V37.13h10.15V44h-7v2Zm-8.54,4h14V58.4h-14Zm3.24,2.61v3.1h7.52v-3.1Zm10.75-15.84V49H132.2V36.78Z"/><path class="cls-2" d="M148.51,50.05v2.73h-8.9V38.07h8.21V40.8h-5v9.25Zm9.09-13.27V58.17h-3.12V46.82h-1.55V57.48h-3V37h3v7.08h1.55V36.78Z"/><path class="cls-2" d="M162.24,41.17h-2V38.58h4.79V36.06h3.24v2.52h4.85v2.59h-1.94a4.8,4.8,0,0,1,1,2.89,5.49,5.49,0,0,1-10.94,0A4.77,4.77,0,0,1,162.24,41.17ZM174.63,58.4V53.17h-10.8V50.52h14V58.4Zm-7.9-11.95a2.59,2.59,0,1,0-2.36-2.57A2.38,2.38,0,0,0,166.73,46.45Zm11.12-9.67v5.13h3.42v2.71h-3.42v4.74h-3.22V36.78Z"/><path class="cls-2" d="M186.86,53.29V46.52H190v6.77h2.09V46.52h3.16v6.77h7.1V56H182.49V53.29Zm12.9-3h-3.19V41H184.84V38.28h14.92Z"/><path class="cls-2" d="M218.41,51.42v2.7H204.33v-2.7ZM205.3,43.05a5.75,5.75,0,0,1,6-5.62,5.83,5.83,0,0,1,6.06,5.62,5.76,5.76,0,0,1-6.06,5.62C208.07,48.67,205.3,46.42,205.3,43.05Zm8.81,0a2.79,2.79,0,1,0-2.78,3A2.78,2.78,0,0,0,214.11,43.05Zm8.67-6.27V58.17h-3.21V36.78Z"/><path class="cls-2" d="M225.94,53.29h5V50.15h-2.43V42.58H240V40.41h-11.4V37.75h14.64V45.2H231.81v2.29h11.7v2.66h-2.75v3.14h5.07V56H225.94Zm11.65,0V50.15h-3.42v3.14Z"/><path class="cls-2" d="M256.29,48.6v2.84h-3.17V48.6h-5.34V46h13.85V48.6Zm4-7.68c0,2.43-2.09,4.51-5.42,4.51s-5.48-2.06-5.48-4.46,2-4.58,5.48-4.58S260.25,38.49,260.25,40.92Zm-5.44,14.61h11.8v2.64H251.55V52.11h3.26Zm2.31-14.61a2.36,2.36,0,1,0-2.29,1.94A2.1,2.1,0,0,0,257.12,40.92ZM263,52h-4.37v-2.5H263V36.76h3.24V53.38H263Z"/><path class="cls-3" d="M30.86,38.83c2.59.24,2.37,1,4.22,2.88,2.46,2.45,4.87,2.58,6.58,1.23a8.5,8.5,0,0,1-2.89-1.8c-1.86-1.75-2.38-4.07-7.88-2.49-.25.08-.19.16,0,.18"/><path class="cls-3" d="M87.16,35.14c-8.38-3.74-17-1.62-23.84,4.53C56.6,45.68,52,52.74,43,52.89c6.9,2.4,20.5,1.5,28-6,.2-.21,0-.18-.08-.11-4.32,2.61-11.15,3.9-14.09,2.93,7.81-5,14.05-13.89,30.34-14.27.6-.07.57-.1,0-.34"/><path class="cls-3" d="M42.38,48.9a7.72,7.72,0,0,1-4-1.45A24.22,24.22,0,0,1,35,44.19c-1.72-1.68-4.6-2.94-8.53-1.36-.21.08-.26.18-.05.2,3.61.18,3.49.62,6.52,4,2,2.27,7.51,2.92,9.45,1.89"/><path class="cls-4" d="M80,30.88c-1.28-.76-6.07-3.22-10.75-2.74a13.21,13.21,0,0,0-6.66,2.42c-1,.64-1.7,1.13-2.3,1.58h0l-.35.27a17,17,0,0,1-4.57,2.45l-.89.25c3.14-4,6.52-7.86,10.7-9.5a.13.13,0,0,0,0-.25C60,24.09,54.73,24.8,50.55,31.23c-4.77,7.33-7.61,16.06-14.2,12.9,4.07,3.87,9.09,2.2,13.41-3,.61-.74,1.22-1.52,1.83-2.31l.72-.94a14.27,14.27,0,0,0,4.44-1l-1.42,1.95C50.61,45.27,44.27,53,34.86,49.2c10.86,7.23,19-3.16,23-7,5-4.69,10-10.7,22.09-11,.27,0,.46-.05,0-.33"/><rect class="cls-1" x="310.07" y="0.38" width="291.49" height="87.56"/><path class="cls-2" d="M407.14,35.73H405V33.17h4.79V30.62h3.24v2.55h4.85v2.56h-2.05A5,5,0,0,1,417,39,5.54,5.54,0,0,1,406,39,4.94,4.94,0,0,1,407.14,35.73Zm4.71,10v4.12H423v2.63H408.59V45.77Zm-.36-4.28c1.41,0,2.35-1.13,2.35-2.75s-.94-2.87-2.35-2.87-2.36,1.27-2.36,2.87S410.07,41.49,411.49,41.49Zm11.12-10.36V37H426v2.66h-3.42v7h-3.22V31.13Z"/><path class="cls-2" d="M439.9,40.36V42.9H428.43V35.81h7V34.07h-7V31.48h10.15v6.91h-7v2Zm-8.54,4h14v8.4h-14ZM434.6,47v3.1h7.52V47Zm10.75-15.84V43.32h-3.21V31.13Z"/><path class="cls-2" d="M458.45,44.41v2.72h-8.9V32.43h8.21v2.73h-5v9.25Zm9.09-13.28V52.52h-3.12V41.17h-1.55V51.83h-3V31.39h3v7.07h1.55V31.13Z"/><path class="cls-2" d="M472.18,35.53h-2V32.94H475V30.42h3.24v2.52h4.85v2.59h-1.94a4.75,4.75,0,0,1,1,2.89,5.49,5.49,0,0,1-10.94,0A4.72,4.72,0,0,1,472.18,35.53Zm12.39,17.23V47.53h-10.8V44.87h14v7.89Zm-7.91-12A2.38,2.38,0,0,0,479,38.23a2.37,2.37,0,1,0-4.71,0A2.36,2.36,0,0,0,476.66,40.8Zm11.13-9.67v5.14h3.42V39h-3.42v4.74h-3.22V31.13Z"/><path class="cls-2" d="M496.8,47.65V40.87H500v6.78h2.09V40.87h3.16v6.78h7.1V50.3H492.43V47.65Zm12.9-3h-3.19V35.37H494.78V32.64H509.7Z"/><path class="cls-2" d="M528.35,45.77v2.71H514.27V45.77ZM515.24,37.4a5.75,5.75,0,0,1,6-5.62,5.83,5.83,0,0,1,6.06,5.62A5.76,5.76,0,0,1,521.27,43C518,43,515.24,40.78,515.24,37.4Zm8.81,0a2.79,2.79,0,1,0-2.78,3A2.78,2.78,0,0,0,524.05,37.4Zm8.67-6.27V52.52h-3.21V31.13Z"/><path class="cls-2" d="M535.88,47.65h5V44.5h-2.43V36.94h11.4V34.76h-11.4V32.1h14.64v7.45H541.75v2.29h11.7V44.5H550.7v3.15h5.07V50.3H535.88Zm11.65,0V44.5h-3.42v3.15Z"/><path class="cls-2" d="M566.23,43V45.8h-3.17V43h-5.34V40.36h13.85V43Zm4-7.68c0,2.43-2.09,4.51-5.42,4.51s-5.48-2.06-5.48-4.46,2-4.58,5.48-4.58S570.19,32.84,570.19,35.27Zm-5.44,14.62h11.8v2.63H561.49V46.46h3.26Zm2.31-14.62a2.36,2.36,0,1,0-2.29,1.94A2.1,2.1,0,0,0,567.06,35.27Zm5.88,11.13h-4.37V43.9h4.37V31.11h3.23V47.74h-3.23Z"/><path class="cls-2" d="M405,60h1.24V62.8h2.66V60h1.24v6.86h-1.24v-3h-2.66v3H405Z"/><path class="cls-2" d="M415.42,65.3h-2.53l-.52,1.59H411L413.46,60h1.38l2.43,6.86h-1.33Zm-2.18-1.07h1.83l-.92-2.82Z"/><path class="cls-2" d="M418.14,60h1.24V65.8h2.76v1.09h-4Z"/><path class="cls-2" d="M423,60h1.24V65.8H427v1.09h-4Z"/><path class="cls-2" d="M429.5,62.88,431.09,60h1.33l-2.3,4.07v2.79h-1.24V64.1L426.59,60h1.32Z"/><path class="cls-2" d="M436.28,65.64l-1.83-3.29v4.54h-1.16V60h1.16l2.22,4.08L438.88,60h1.17v6.85h-1.16V62.35l-1.84,3.29Z"/><path class="cls-2" d="M448.68,64.5a2.5,2.5,0,1,1-5,0V60h1.24V64.6a1.26,1.26,0,1,0,2.51,0V60h1.24Z"/><path class="cls-2" d="M450.07,60h1.22l2.82,4.74V60h1.18v6.86h-1.22l-2.83-4.74v4.74h-1.17Z"/><path class="cls-2" d="M458.06,60v6.86h-1.24V60Z"/><path class="cls-2" d="M462.17,65.33,464,60h1.31l-2.43,6.86h-1.38L459.05,60h1.31Z"/><path class="cls-2" d="M466.15,60h4.11v1.1h-2.87V62.9H470V64h-2.63V65.8h3v1.09h-4.2Z"/><path class="cls-2" d="M475,64.08l1.38,2.81H475l-1.19-2.62h-1v2.62h-1.24V60h2.31a2.05,2.05,0,0,1,2.31,2.12A1.92,1.92,0,0,1,475,64.08Zm-1.17-3h-1V63.2h1c.75,0,1.15-.35,1.15-1.05S474.53,61.11,473.78,61.11Z"/><path class="cls-2" d="M477.81,65.05a2.38,2.38,0,0,0,1.66.86c.71,0,1.21-.35,1.21-.92s-.3-.88-1.4-1.12c-1.37-.29-2.06-1-2.06-2a2,2,0,0,1,2.19-1.94,3,3,0,0,1,2.18.87l-.7.9a2.11,2.11,0,0,0-1.42-.67c-.57,0-1,.29-1,.75s.38.85,1.34,1.07c1.53.35,2.12,1.07,2.12,2.14s-.91,2-2.42,2a3.19,3.19,0,0,1-2.44-1.1Z"/><path class="cls-2" d="M484.43,60v6.86h-1.24V60Z"/><path class="cls-2" d="M487.28,61.14h-1.76V60h4.75v1.11h-1.75v5.75h-1.24Z"/><path class="cls-2" d="M493.62,62.88,495.21,60h1.33l-2.3,4.07v2.79H493V64.1L490.71,60H492Z"/><path class="cls-2" d="M502.66,65.64l-1.84-3.29v4.54h-1.15V60h1.16l2.22,4.08L505.26,60h1.16v6.85h-1.15V62.35l-1.84,3.29Z"/><path class="cls-2" d="M507.81,60h4.11v1.1h-2.87V62.9h2.64V64h-2.64V65.8h3v1.09h-4.2Z"/><path class="cls-2" d="M515.43,60a3.43,3.43,0,0,1,0,6.86h-2.21V60Zm-1,1.12v4.63h.95c1.24,0,2.1-.73,2.1-2.32s-.86-2.31-2.1-2.31Z"/><path class="cls-2" d="M521.15,60v6.86h-1.24V60Z"/><path class="cls-2" d="M522.28,63.46a3.32,3.32,0,0,1,3.31-3.54,3.56,3.56,0,0,1,2.26.78l-.62.95a2.72,2.72,0,0,0-1.64-.62,2.47,2.47,0,0,0,0,4.86,2.65,2.65,0,0,0,1.68-.66l.66.94a3.58,3.58,0,0,1-2.34.84A3.31,3.31,0,0,1,522.28,63.46Z"/><path class="cls-2" d="M532.75,65.3h-2.53l-.52,1.59h-1.33L530.79,60h1.38l2.42,6.86h-1.32Zm-2.19-1.07h1.84l-.92-2.82Z"/><path class="cls-2" d="M535.46,60h1.24V65.8h2.77v1.09h-4Z"/><path class="cls-2" d="M542.2,63.46a3.32,3.32,0,0,1,3.32-3.54,3.58,3.58,0,0,1,2.26.78l-.63.95a2.71,2.71,0,0,0-1.63-.62,2.46,2.46,0,0,0,0,4.86,2.67,2.67,0,0,0,1.68-.66l.66.94a3.6,3.6,0,0,1-2.34.84A3.32,3.32,0,0,1,542.2,63.46Z"/><path class="cls-2" d="M548.81,60h4.11v1.1h-2.87V62.9h2.64V64h-2.64V65.8h3v1.09h-4.2Z"/><path class="cls-2" d="M554.23,60h1.22l2.82,4.74V60h1.18v6.86h-1.22l-2.83-4.74v4.74h-1.17Z"/><path class="cls-2" d="M562.17,61.14h-1.76V60h4.75v1.11h-1.75v5.75h-1.24Z"/><path class="cls-2" d="M566.12,60h4.11v1.1h-2.87V62.9H570V64h-2.63V65.8h2.95v1.09h-4.19Z"/><path class="cls-2" d="M574.92,64.08l1.38,2.81h-1.36l-1.19-2.62h-1v2.62h-1.24V60h2.31a2.05,2.05,0,0,1,2.31,2.12A1.92,1.92,0,0,1,574.92,64.08Zm-1.17-3h-1V63.2h1c.75,0,1.15-.35,1.15-1.05S574.5,61.11,573.75,61.11Z"/><path class="cls-3" d="M340.75,33c2.59.25,2.37,1,4.21,2.87,2.45,2.44,4.85,2.58,6.56,1.23a8.45,8.45,0,0,1-2.88-1.8c-1.86-1.74-2.38-4.05-7.86-2.47-.24.07-.18.15,0,.17"/><path class="cls-3" d="M396.85,29.34c-8.36-3.72-16.89-1.62-23.76,4.52-6.69,6-11.26,13-20.23,13.16,6.87,2.39,20.41,1.49,27.84-5.93.2-.21.05-.19-.08-.12-4.29,2.61-11.1,3.89-14,2.93,7.78-5,14-13.85,30.22-14.22.6-.07.58-.1,0-.34"/><path class="cls-3" d="M352.23,43.05a7.64,7.64,0,0,1-4-1.45,24,24,0,0,1-3.35-3.24c-1.71-1.68-4.58-2.93-8.5-1.36-.21.08-.26.18-.05.19,3.6.19,3.48.63,6.5,4,2,2.26,7.48,2.9,9.41,1.88"/><path class="cls-4" d="M389.67,25.1c-1.28-.76-6.06-3.21-10.72-2.73a13.12,13.12,0,0,0-6.63,2.4c-1,.65-1.69,1.13-2.3,1.58h0s-.28.21-.34.27a16.82,16.82,0,0,1-4.56,2.44l-.88.25c3.12-4,6.49-7.84,10.65-9.46a.13.13,0,0,0,0-.25c-5.05-1.27-10.34-.56-14.51,5.85-4.75,7.29-7.58,16-14.14,12.85,4,3.85,9.06,2.19,13.36-3,.6-.74,1.22-1.51,1.82-2.3l.72-.94a13.9,13.9,0,0,0,4.42-1L365.13,33c-4.7,6.45-11,14.2-20.39,10.37,10.82,7.2,18.92-3.15,22.94-6.94,5-4.67,10-10.66,22-11,.27,0,.47,0,0-.32"/><rect class="cls-1" x="618.62" y="0.38" width="434.97" height="87.56"/><path class="cls-2" d="M712.41,41.77h2.45v5.46h5.27V41.77h2.45V55.3h-2.45V49.41h-5.27V55.3h-2.45Z"/><path class="cls-2" d="M732.12,52.16h-5l-1,3.14h-2.63l4.79-13.53H731l4.8,13.53h-2.62Zm-4.32-2.11h3.63l-1.81-5.56Z"/><path class="cls-2" d="M736.66,41.77h2.45V53.14h5.46V55.3h-7.91Z"/><path class="cls-2" d="M745.46,41.77h2.45V53.14h5.47V55.3h-7.92Z"/><path class="cls-2" d="M757.46,47.39l3.13-5.62h2.64l-4.54,8v5.5h-2.45V49.8l-4.54-8h2.62Z"/><path class="cls-2" d="M770,52.84l-3.63-6.5v9h-2.28V41.78h2.3l4.38,8.06,4.37-8.06h2.3V55.3h-2.28v-9l-3.63,6.5Z"/><path class="cls-2" d="M792.87,50.59a4.93,4.93,0,0,1-9.85,0V41.77h2.45v9a2.48,2.48,0,1,0,4.95,0v-9h2.45Z"/><path class="cls-2" d="M794.79,41.77h2.42l5.58,9.35V41.77h2.33V55.3h-2.41L797.12,46V55.3h-2.33Z"/><path class="cls-2" d="M809.75,41.77V55.3H807.3V41.77Z"/><path class="cls-2" d="M817.05,52.23l3.56-10.46h2.59L818.4,55.3h-2.72l-4.79-13.53h2.59Z"/><path class="cls-2" d="M824.09,41.77h8.12v2.16h-5.67v3.5h5.21v2.14h-5.21v3.59h5.84V55.3h-8.29Z"/><path class="cls-2" d="M840.66,49.77l2.72,5.53h-2.69l-2.35-5.17h-1.93V55.3H834V41.77h4.56c2.82,0,4.57,1.58,4.57,4.18A3.81,3.81,0,0,1,840.66,49.77Zm-2.32-5.88h-1.93V48h1.93c1.49,0,2.28-.71,2.28-2.08S839.83,43.89,838.34,43.89Z"/><path class="cls-2" d="M845.49,51.66a4.63,4.63,0,0,0,3.27,1.71c1.4,0,2.4-.7,2.4-1.81,0-1-.6-1.74-2.78-2.22-2.71-.58-4.08-2-4.08-4,0-2.27,1.8-3.83,4.34-3.83A5.86,5.86,0,0,1,853,43.26L851.57,45a4.17,4.17,0,0,0-2.81-1.32c-1.13,0-2,.58-2,1.47s.73,1.67,2.64,2.11c3,.71,4.2,2.11,4.2,4.22,0,2.36-1.8,4-4.8,4A6.35,6.35,0,0,1,844,53.37Z"/><path class="cls-2" d="M857.74,41.77V55.3h-2.45V41.77Z"/><path class="cls-2" d="M862.53,44h-3.48V41.77h9.4V44H865V55.3h-2.45Z"/><path class="cls-2" d="M874.24,47.39l3.13-5.62H880l-4.54,8v5.5H873V49.8l-4.54-8h2.62Z"/><path class="cls-2" d="M890.44,52.84l-3.63-6.5v9h-2.28V41.78h2.3l4.39,8.06,4.37-8.06h2.29V55.3H895.6v-9L892,52.84Z"/><path class="cls-2" d="M899.8,41.77h8.12v2.16h-5.67v3.5h5.21v2.14h-5.21v3.59h5.84V55.3H899.8Z"/><path class="cls-2" d="M914,41.77c4,0,6.61,2.6,6.61,6.76S918.06,55.3,914,55.3h-4.37V41.77ZM912.12,44v9.13H914c2.45,0,4.16-1.45,4.16-4.58S916.44,44,914,44Z"/><path class="cls-2" d="M924.5,41.77V55.3h-2.45V41.77Z"/><path class="cls-2" d="M925.91,48.53c0-3.93,2.62-7,6.54-7a7.13,7.13,0,0,1,4.48,1.54L935.69,45a5.25,5.25,0,0,0-3.24-1.23c-2.38,0-4.06,2.09-4.06,4.79s1.68,4.81,4.06,4.81A5.33,5.33,0,0,0,935.78,52l1.3,1.85a7,7,0,0,1-4.63,1.65C928.53,55.53,925.91,52.49,925.91,48.53Z"/><path class="cls-2" d="M945.77,52.16h-5l-1,3.14h-2.63l4.79-13.53h2.72l4.8,13.53H946.8Zm-4.32-2.11h3.63l-1.81-5.56Z"/><path class="cls-2" d="M950.31,41.77h2.45V53.14h5.46V55.3h-7.91Z"/><path class="cls-2" d="M962,48.53c0-3.93,2.62-7,6.55-7A7.12,7.12,0,0,1,973,43.08L971.76,45a5.3,5.3,0,0,0-3.24-1.23c-2.38,0-4.06,2.09-4.06,4.79s1.68,4.81,4.06,4.81A5.33,5.33,0,0,0,971.84,52c.45.62.88,1.23,1.31,1.85a7,7,0,0,1-4.63,1.65C964.59,55.53,962,52.49,962,48.53Z"/><path class="cls-2" d="M974.21,41.77h8.12v2.16h-5.67v3.5h5.21v2.14h-5.21v3.59h5.84V55.3h-8.29Z"/><path class="cls-2" d="M984.07,41.77h2.42l5.59,9.35V41.77h2.33V55.3H992L986.4,46V55.3h-2.33Z"/><path class="cls-2" d="M999,44h-3.48V41.77h9.39V44h-3.46V55.3H999Z"/><path class="cls-2" d="M1005.92,41.77H1014v2.16h-5.67v3.5h5.21v2.14h-5.21v3.59h5.84V55.3h-8.29Z"/><path class="cls-2" d="M1022.49,49.77l2.72,5.53h-2.69l-2.34-5.17h-1.94V55.3h-2.45V41.77h4.56c2.82,0,4.57,1.58,4.57,4.18A3.81,3.81,0,0,1,1022.49,49.77Zm-2.31-5.88h-1.94V48h1.94c1.49,0,2.27-.71,2.27-2.08S1021.67,43.89,1020.18,43.89Z"/><path class="cls-3" d="M651.42,43.54c2.52.24,2.3,1,4.09,2.79,2.39,2.38,4.72,2.51,6.38,1.2a8.24,8.24,0,0,1-2.8-1.75c-1.8-1.69-2.31-3.94-7.64-2.4-.23.07-.18.15,0,.16"/><path class="cls-3" d="M706,40c-8.12-3.63-16.42-1.58-23.09,4.39-6.5,5.81-11,12.65-19.68,12.8,6.68,2.32,19.86,1.45,27.08-5.78.19-.2,0-.17-.08-.1-4.18,2.53-10.8,3.77-13.64,2.84,7.56-4.9,13.6-13.46,29.38-13.83.58-.06.56-.09,0-.32"/><path class="cls-3" d="M662.58,53.31a7.4,7.4,0,0,1-3.89-1.42,22.29,22.29,0,0,1-3.27-3.15c-1.66-1.63-4.45-2.85-8.26-1.32-.2.08-.25.18,0,.19,3.5.18,3.38.61,6.31,3.86,2,2.2,7.28,2.83,9.15,1.84"/><path class="cls-4" d="M699,35.85c-1.24-.74-5.88-3.12-10.42-2.65a12.68,12.68,0,0,0-6.45,2.34c-1,.62-1.64,1.09-2.23,1.53h0l-.33.26a16.41,16.41,0,0,1-4.43,2.37l-.86.24c3-3.89,6.32-7.61,10.36-9.19a.13.13,0,0,0,0-.25c-4.91-1.23-10.06-.54-14.11,5.69-4.62,7.09-7.37,15.55-13.75,12.49,3.94,3.75,8.8,2.13,13-2.93.59-.72,1.18-1.47,1.77-2.24l.7-.91a13.71,13.71,0,0,0,4.3-1l-1.38,1.89c-4.57,6.28-10.71,13.81-19.83,10.09,10.52,7,18.39-3.07,22.3-6.75,4.84-4.54,9.71-10.36,21.4-10.69.26,0,.45,0,0-.31"/></g></svg>