<svg id="콘텐츠" xmlns="http://www.w3.org/2000/svg" viewBox="0 0 360.76 50.38"><defs><style>.cls-1{fill:#3e3a39;}.cls-2{fill:#717171;}.cls-3{fill:#e96076;}</style></defs><path class="cls-1" d="M106.46,24.83h-3.15V21h7.18V17.16h4.86V21h7.29v3.85h-3.09a7.45,7.45,0,0,1,1.77,4.83,8.31,8.31,0,0,1-16.59,0A7.42,7.42,0,0,1,106.46,24.83Zm7.09,15.07v6.18h16.66v4H108.65V39.9ZM113,33.48c2.12,0,3.54-1.7,3.54-4.14S115.11,25,113,25s-3.54,1.91-3.54,4.3S110.87,33.48,113,33.48Zm16.7-15.56v8.82h5.14v4h-5.14V41.22h-4.83V17.92Z"/><path class="cls-1" d="M155.64,31.78v3.81H138.42V24.94H148.9V22.33H138.42V18.45h15.24V28.83H143.17v3Zm-12.81,6h21v12.6h-21Zm4.86,3.92v4.65H159V41.7Zm16.14-23.78v18.3H159V17.92Z"/><path class="cls-1" d="M183.49,37.85V42H170.13V19.87h12.32V24H175V37.85Zm13.65-19.93V50h-4.69V33h-2.33V49h-4.54V18.31h4.54V28.93h2.33v-11Z"/><path class="cls-1" d="M204.1,24.52h-2.95V20.63h7.18V16.85h4.86v3.78h7.29v3.89h-2.92a7.2,7.2,0,0,1,1.5,4.34c0,4.16-3.61,7.57-8.23,7.57s-8.19-3.41-8.19-7.57A7.16,7.16,0,0,1,204.1,24.52Zm18.6,25.86V42.54H206.49v-4h21V50.38ZM210.83,32.44a3.58,3.58,0,0,0,3.54-3.86,3.56,3.56,0,1,0-7.08,0A3.56,3.56,0,0,0,210.83,32.44Zm16.7-14.52v7.71h5.14v4.06h-5.14v7.12H222.7V17.92Z"/><path class="cls-1" d="M241.05,42.71V32.54h4.75V42.71h3.13V32.54h4.76V42.71h10.65v4H234.49v-4Zm19.37-4.48h-4.79V24.28H238v-4.1h22.39Z"/><path class="cls-1" d="M288.41,39.9V44H267.27V39.9ZM268.73,27.33c0-5,4.17-8.43,9.06-8.43s9.1,3.47,9.1,8.43-4.24,8.44-9.1,8.44S268.73,32.4,268.73,27.33Zm13.23,0a4.19,4.19,0,1,0-8.37,0,4.19,4.19,0,1,0,8.37,0Zm13-9.41V50h-4.83V17.92Z"/><path class="cls-1" d="M299.71,42.71h7.57V38h-3.64V26.64h17.11V23.37H303.64v-4h22V30.56H308.53V34H326.1v4H322v4.72h7.6v4H299.71Zm17.5,0V38h-5.14v4.72Z"/><path class="cls-1" d="M345.28,35.66v4.27h-4.76V35.66h-8V31.78h20.79v3.88Zm5.93-11.52c0,3.64-3.12,6.77-8.12,6.77s-8.23-3.09-8.23-6.7,3-6.88,8.23-6.88C348.09,17.33,351.21,20.5,351.21,24.14Zm-8.15,21.94h17.7v4h-22.6V40.94h4.9Zm3.47-21.94a3.17,3.17,0,0,0-3.44-2.92c-2.19,0-3.54,1.39-3.54,2.92s1.35,2.91,3.54,2.91S346.53,25.7,346.53,24.14Zm8.81,16.7h-6.56V37.09h6.56V17.89h4.86v25h-4.86Z"/><path class="cls-2" d="M6.88,21c3.9.37,3.56,1.56,6.34,4.32,3.69,3.68,7.31,3.88,9.88,1.85a12.9,12.9,0,0,1-4.34-2.7c-2.8-2.63-3.58-6.11-11.84-3.73-.36.11-.28.23,0,.26"/><path class="cls-2" d="M91.4,15.47C78.81,9.86,66,13,55.61,22.27c-10.08,9-17,19.61-30.5,19.84,10.36,3.59,30.77,2.25,42-9,.3-.31.07-.27-.12-.16-6.47,3.92-16.73,5.85-21.14,4.4C57.53,29.81,66.9,16.54,91.34,16c.9-.1.87-.14.06-.5"/><path class="cls-2" d="M24.17,36.12a11.47,11.47,0,0,1-6-2.18c-2-1.36-3.47-3.33-5-4.88C10.5,26.52,6.18,24.64.28,27c-.32.13-.39.29-.07.3,5.42.28,5.23.94,9.78,6,3.08,3.41,11.27,4.37,14.18,2.83"/><path class="cls-3" d="M80.58,9.07C78.66,7.93,71.46,4.24,64.43,5a19.78,19.78,0,0,0-10,3.63c-1.51,1-2.55,1.7-3.46,2.38h0l-.52.4A24.86,24.86,0,0,1,43.59,15c-.51.16-1,.28-1.33.38,4.71-6,9.79-11.8,16.06-14.25a.2.2,0,0,0,0-.38C50.69-1.13,42.72,0,36.44,9.6,29.29,20.59,25,33.7,15.13,29c6.11,5.81,13.65,3.3,20.13-4.55C36.17,23.3,37.09,22.13,38,21l1.08-1.41A21.59,21.59,0,0,0,45.75,18L43.62,21C36.53,30.67,27,42.34,12.89,36.57c16.3,10.85,28.5-4.75,34.56-10.45,7.5-7,15-16.06,33.15-16.56.41,0,.7-.06,0-.49"/></svg>