<?xml version="1.0" encoding="utf-8"?>
<!-- Generator: Adobe Illustrator 25.0.1, SVG Export Plug-In . SVG Version: 6.00 Build 0)  -->
<svg version="1.1" id="Layer_1" xmlns="http://www.w3.org/2000/svg" xmlns:xlink="http://www.w3.org/1999/xlink" x="0px" y="0px"
	 viewBox="0 0 64.1 60.6" style="enable-background:new 0 0 64.1 60.6;" xml:space="preserve">
<style type="text/css">
	.st0{fill:none;stroke:#E56076;stroke-width:3;stroke-miterlimit:10;}
	.st1{display:none;}
</style>
<g id="텍스트">
</g>
<g id="main">
	<g>
		<g>
			<g>
				<polygon class="st0" points="44.3,10.3 13.1,2 13.1,39.9 44.3,32.9 				"/>
				<path class="st0" d="M62.6,27.5c0,1.3-0.5,2.6-1.5,3.7s-2.3,1.5-3.7,1.5H44.3V9.9h13.1c1.3,0,2.7,0.5,3.7,1.5
					c1,1,1.5,2.3,1.5,3.7C62.6,15,62.6,27.5,62.6,27.5z"/>
				<line class="st0" x1="0.4" y1="21.8" x2="7.6" y2="21.8"/>
				<line class="st0" x1="7.6" y1="32.2" x2="1.1" y2="38.7"/>
				<line class="st0" x1="7.6" y1="11" x2="1.1" y2="4.5"/>
				<path class="st0" d="M48.2,56c-0.4,1.1-1.2,2.1-2.4,2.6c-1.2,0.5-2.4,0.6-3.5,0.2l-0.7-0.3c-1.1-0.4-2.1-1.2-2.6-2.4
					c-0.5-1.2-0.6-2.4-0.2-3.5l7.1-20l10.7,0L48.2,56z"/>
			</g>
		</g>
	</g>
</g>
<g id="hi">
</g>
<g id="상단_x5F_hi">
</g>
<g id="메인상단_x5F_hi">
</g>
<g id="sider">
</g>
<g id="소개_x5F_상단_x5F_하단">
</g>
<g id="소개_x5F_본문">
</g>
<g id="menu_x5F_소개" class="st1">
</g>
<g id="menu_x5F_산하기관" class="st1">
</g>
<g id="menu_x5F_산하기관_copy" class="st1">
</g>
<g id="menu_x5F_사회공헌" class="st1">
</g>
<g id="menu_x5F_PR" class="st1">
</g>
<g id="menu_x5F_PR_copy" class="st1">
</g>
<g id="그리드_14_x2F_20" class="st1">
</g>
<g id="icon">
</g>
<g id="Layer_16" class="st1">
</g>
<g id="예약팝업">
</g>
</svg>
