<svg xmlns="http://www.w3.org/2000/svg" viewBox="0 0 1047.25 768.25"><defs><style>.cls-1,.cls-4{fill:#e56076;}.cls-15,.cls-2,.cls-6,.cls-7,.cls-8{fill:none;}.cls-2{stroke:#919396;}.cls-15,.cls-2,.cls-8{stroke-miterlimit:10;}.cls-15,.cls-2{stroke-width:0.75px;}.cls-3{font-size:15px;font-family:Hallym-Regular, Hallym Gothic;}.cls-3,.cls-5{letter-spacing:0.05em;}.cls-4{opacity:0.5;}.cls-5{font-size:110px;}.cls-11,.cls-13,.cls-5,.cls-9{font-family:HallymMjo-Bold, Hallym Mjo;font-weight:700;}.cls-6,.cls-7,.cls-8{stroke:#e56076;}.cls-6,.cls-7{stroke-linecap:round;stroke-linejoin:round;stroke-width:5px;}.cls-6{stroke-dasharray:9.19 9.19;}.cls-7{stroke-dasharray:8.71 8.71;}.cls-8{stroke-width:3px;}.cls-10,.cls-9{font-size:76.63px;letter-spacing:0.05em;}.cls-10,.cls-12,.cls-14{font-family:HallymMjo-Regular, Hallym Mjo;}.cls-11,.cls-12{font-size:49.57px;letter-spacing:0.05em;}.cls-13,.cls-14{font-size:21.29px;letter-spacing:0.05em;}.cls-15{stroke:#6d6e71;}</style></defs><g id="소개_본문"><circle class="cls-1" cx="505.23" cy="52.04" r="5.89"/><rect class="cls-2" x="858.54" y="134.45" width="130.43" height="130.43" rx="20"/><text class="cls-3" transform="translate(876.55 162.98)">각진 부분 없이<tspan x="-5.1" y="22">부드러운 부리로</tspan><tspan x="4.65" y="44">한림의료원의</tspan><tspan x="2.32" y="66">따뜻한 마음을</tspan><tspan x="26.92" y="88">형상화</tspan></text><rect class="cls-2" x="503.59" y="0.38" width="260.85" height="88" rx="20"/><text class="cls-3" transform="translate(517.67 27.7)">정성스럽게 손으로 써내려가는 듯한<tspan x="5.1" y="22">붓의 흐름을 표현한 획의 맺음으로</tspan><tspan x="22.27" y="44">정성을 다하는 마음을 표현함</tspan></text><text class="cls-3" transform="translate(578.62 440.21)">획이 붙는 부분 없이 제작되어<tspan x="34.35" y="22">글사 인식이 용이함</tspan></text><rect class="cls-2" x="567.38" y="411.68" width="218.67" height="65.06" rx="20"/><rect class="cls-2" x="55.89" y="86.62" width="150.75" height="111.74" rx="20"/><circle class="cls-4" cx="542.13" cy="332.56" r="52.67"/><circle class="cls-4" cx="347.67" cy="138.11" r="52.67"/><circle class="cls-4" cx="499.38" cy="145.49" r="36.05"/><circle class="cls-4" cx="784.05" cy="262.26" r="52.67"/><text class="cls-5" transform="translate(310.03 200.78)">일송학원<tspan x="-56.1" y="145">한림의료원</tspan></text><circle class="cls-1" cx="208.65" cy="141.72" r="5.89"/><circle class="cls-1" cx="566.43" cy="444.32" r="5.89"/><circle class="cls-1" cx="858.68" cy="191.78" r="5.89"/><circle class="cls-6" cx="347.67" cy="138.11" r="52.67" transform="translate(-17.63 57.47) rotate(-9.22)"/><circle class="cls-7" cx="499.38" cy="145.49" r="36.05" transform="translate(305.39 628.1) rotate(-84.35)"/><circle class="cls-6" cx="784.05" cy="262.26" r="52.67" transform="translate(44.19 631.22) rotate(-45)"/><circle class="cls-6" cx="542.13" cy="332.56" r="52.67" transform="translate(93.92 783.78) rotate(-76.72)"/><line class="cls-8" x1="293.9" y1="141.72" x2="213.24" y2="141.72"/><line class="cls-8" x1="859.44" y1="190.78" x2="823.21" y2="227.01"/><polyline class="cls-8" points="504.24 51.04 482.46 67.13 482.46 113.65"/><polyline class="cls-8" points="542.13 385.23 542.13 425.94 566.43 444.32"/><text class="cls-3" transform="translate(78.27 118.88)">상투를 생략하고<tspan x="7.42" y="22">정원의 형태로</tspan><tspan x="-7.42" y="44">깔끔하고 현대적인</tspan><tspan x="32.02" y="66">이미지</tspan></text><text class="cls-9" transform="translate(164.84 640.5)">한림고딕체</text><text class="cls-10" transform="translate(164.84 745.32)">한림고딕체</text><text class="cls-11" transform="translate(574.5 633.99)">환자중심 의료서비스</text><text class="cls-12" transform="translate(574.5 736.91)">환자중심 의료서비스</text><text class="cls-13" transform="translate(9.14 624.78)">BOLD</text><text class="cls-14" transform="translate(9.14 725.79)">REGULAR</text><line class="cls-15" y1="664.75" x2="1047.25" y2="664.75"/><line class="cls-15" y1="768.25" x2="1047.25" y2="768.25"/></g></svg>