<svg xmlns="http://www.w3.org/2000/svg" viewBox="0 0 1047.25 742.44"><defs><style>.cls-1,.cls-2,.cls-3{font-size:76.63px;letter-spacing:0.05em;}.cls-1,.cls-15,.cls-4,.cls-7{font-family:Hallym-Bold, Hallym Gothic;font-weight:700;}.cls-2,.cls-5,.cls-8{font-family:Hallym-Medium, Hallym Gothic;font-weight:500;}.cls-13,.cls-3,.cls-6,.cls-9{font-family:Hallym-Regular, Hallym Gothic;}.cls-4,.cls-5,.cls-6{font-size:51.28px;letter-spacing:0.05em;}.cls-7,.cls-8,.cls-9{font-size:21.29px;}.cls-7,.cls-9{letter-spacing:0.05em;}.cls-8{letter-spacing:0.05em;}.cls-10{letter-spacing:0.04em;}.cls-11,.cls-14,.cls-16,.cls-17{fill:none;}.cls-11{stroke:#6d6e71;}.cls-11,.cls-14,.cls-17{stroke-miterlimit:10;}.cls-11,.cls-17{stroke-width:0.75px;}.cls-12,.cls-18{fill:#e56076;}.cls-12{opacity:0.5;}.cls-13{font-size:15px;letter-spacing:0.05em;}.cls-14,.cls-16{stroke:#e56076;}.cls-14{stroke-width:3px;}.cls-15{font-size:129.74px;letter-spacing:0.05em;}.cls-16{stroke-linecap:round;stroke-linejoin:round;stroke-width:5px;stroke-dasharray:9.19 9.19;}.cls-17{stroke:#919396;}</style></defs><g id="소개_본문"><text class="cls-1" transform="translate(164.84 512.31)">한림고딕체</text><text class="cls-2" transform="translate(164.84 615.42)">한림고딕체</text><text class="cls-3" transform="translate(164.84 715.97)">한림고딕체</text><text class="cls-4" transform="translate(574.5 505.05)">환자중심 의료서비스</text><text class="cls-5" transform="translate(574.5 608.11)">환자중심 의료서비스</text><text class="cls-6" transform="translate(574.5 708.67)">환자중심 의료서비스</text><text class="cls-7" transform="translate(9.14 496.47)">BOLD</text><text class="cls-8" transform="translate(9.14 597.47)">MEDIUM</text><text class="cls-9" transform="translate(9.14 700.03)">R<tspan class="cls-10" x="15.12" y="0">E</tspan><tspan x="29" y="0">GULAR</tspan></text><line class="cls-11" y1="535.44" x2="1047.25" y2="535.44"/><line class="cls-11" y1="638.94" x2="1047.25" y2="638.94"/><line class="cls-11" y1="742.44" x2="1047.25" y2="742.44"/><circle class="cls-12" cx="428.23" cy="272.95" r="52.67"/><text class="cls-13" transform="translate(164.66 216.35)">휘어짐 없이<tspan x="-29.7" y="22">직각형태의 조합으로</tspan><tspan x="-14.85" y="44">한림의 견고함을</tspan><tspan x="-14.85" y="66">시각적으로 표현</tspan></text><text class="cls-13" transform="translate(179.52 52.12)">힘에 눌리지 않은<tspan x="24.6" y="22">정원 형태</tspan></text><text class="cls-13" transform="translate(820.26 122.65)">수직수평의<tspan x="-2.32" y="22">상단 구조로</tspan><tspan x="-17.17" y="44">장식적인 묘사를</tspan><tspan x="-7.42" y="66">생락함으로써</tspan><tspan x="0" y="88">현대적이고</tspan><tspan x="-9.75" y="110">모던한 이미지</tspan></text><polyline class="cls-14" points="378.84 292.98 337.67 292.98 281.7 258.36"/><circle class="cls-12" cx="451.79" cy="55.17" r="52.67"/><circle class="cls-12" cx="666.44" cy="224.21" r="52.67"/><polyline class="cls-14" points="717.92 221.07 756.77 221.07 791.15 186.68"/><text class="cls-15" transform="translate(412.93 129.25)">한림<tspan x="-64.22" y="163.72">대학교</tspan></text><circle class="cls-16" cx="451.79" cy="55.17" r="52.67"/><circle class="cls-16" cx="666.44" cy="224.21" r="52.67"/><circle class="cls-16" cx="428.23" cy="272.95" r="52.67" transform="translate(154.15 700.47) rotate(-89.85)"/><rect class="cls-17" x="127.06" y="187.32" width="150.75" height="111.74" rx="20"/><rect class="cls-17" x="791.77" y="92.74" width="131.23" height="159.18" rx="20"/><rect class="cls-17" x="160.77" y="26.05" width="150.75" height="63.51" rx="20"/><circle class="cls-18" cx="277.81" cy="254.47" r="5.89"/><circle class="cls-18" cx="312.78" cy="58.78" r="5.89"/><line class="cls-14" x1="398.03" y1="58.78" x2="317.37" y2="58.78"/><circle class="cls-18" cx="791.15" cy="185.11" r="5.89"/></g></svg>