<svg xmlns="http://www.w3.org/2000/svg" viewBox="0 0 1054.45 144.93"><defs><style>.cls-1{fill:none;stroke:#6d6e71;stroke-miterlimit:10;stroke-width:0.75px;}.cls-2{fill:#3e3a39;}.cls-3{fill:#717171;}.cls-4{fill:#e76076;}</style></defs><g id="hi"><rect class="cls-1" x="584.92" y="0.38" width="469.16" height="141.63"/><path class="cls-2" d="M650.55,93.68h2.57v5.74h5.52V93.68h2.57V107.9h-2.57v-6.19h-5.52v6.19h-2.57Z"/><path class="cls-2" d="M671.23,104.59H666l-1.08,3.31h-2.75l5-14.22H670l5,14.22h-2.75Zm-4.53-2.21h3.81l-1.91-5.84Z"/><path class="cls-2" d="M676,93.68h2.57v11.95h5.74v2.27H676Z"/><path class="cls-2" d="M685.23,93.68h2.57v11.95h5.74v2.27h-8.31Z"/><path class="cls-2" d="M697.82,99.59l3.29-5.91h2.77l-4.76,8.44v5.78h-2.58v-5.78l-4.76-8.44h2.75Z"/><path class="cls-2" d="M711,105.31l-3.81-6.83v9.42h-2.39V93.7h2.41l4.6,8.45,4.59-8.45h2.41v14.2h-2.4V98.48l-3.81,6.83Z"/><path class="cls-2" d="M735,103a5.17,5.17,0,1,1-10.34,0V93.68h2.57v9.47a2.6,2.6,0,1,0,5.2,0V93.68H735Z"/><path class="cls-2" d="M737,93.68h2.54l5.86,9.82V93.68h2.45V107.9h-2.54l-5.86-9.83v9.83H737Z"/><path class="cls-2" d="M752.7,93.68V107.9h-2.57V93.68Z"/><path class="cls-2" d="M760.36,104.67l3.74-11h2.72l-5,14.22h-2.86l-5-14.22h2.71Z"/><path class="cls-2" d="M767.75,93.68h8.53V96h-6v3.67h5.47v2.26h-5.47v3.76h6.13v2.26h-8.7Z"/><path class="cls-2" d="M785.14,102.08,788,107.9h-2.82l-2.47-5.43h-2v5.43h-2.57V93.68h4.78c3,0,4.8,1.66,4.8,4.39A4,4,0,0,1,785.14,102.08Zm-2.43-6.17h-2v4.34h2c1.57,0,2.39-.74,2.39-2.18S784.28,95.91,782.71,95.91Z"/><path class="cls-2" d="M790.21,104.07a4.89,4.89,0,0,0,3.43,1.8c1.48,0,2.52-.74,2.52-1.91,0-1-.63-1.82-2.91-2.32-2.84-.61-4.28-2.07-4.28-4.18,0-2.38,1.89-4,4.55-4a6.13,6.13,0,0,1,4.53,1.81l-1.46,1.86a4.39,4.39,0,0,0-3-1.38c-1.18,0-2.07.61-2.07,1.55s.78,1.75,2.78,2.22c3.18.73,4.4,2.21,4.4,4.43,0,2.47-1.89,4.21-5,4.21a6.67,6.67,0,0,1-5.06-2.27Z"/><path class="cls-2" d="M803.07,93.68V107.9h-2.58V93.68Z"/><path class="cls-2" d="M808.1,96h-3.65V93.68h9.85V96h-3.63V107.9H808.1Z"/><path class="cls-2" d="M820.38,99.59l3.29-5.91h2.77l-4.76,8.44v5.78H819.1v-5.78l-4.76-8.44h2.75Z"/><path class="cls-2" d="M837.39,105.31l-3.81-6.83v9.42h-2.39V93.7h2.41l4.6,8.45,4.59-8.45h2.41v14.2h-2.39V98.48L839,105.31Z"/><path class="cls-2" d="M847.21,93.68h8.52V96h-6v3.67h5.47v2.26h-5.47v3.76h6.13v2.26h-8.7Z"/><path class="cls-2" d="M862.15,93.68c4.23,0,7,2.73,7,7.11s-2.72,7.11-7,7.11h-4.58V93.68Zm-2,2.33v9.58h2c2.57,0,4.37-1.52,4.37-4.8S864.67,96,862.1,96Z"/><path class="cls-2" d="M873.14,93.68V107.9h-2.57V93.68Z"/><path class="cls-2" d="M874.61,100.79c0-4.14,2.75-7.35,6.87-7.35a7.5,7.5,0,0,1,4.7,1.62l-1.3,2a5.55,5.55,0,0,0-3.4-1.29c-2.5,0-4.26,2.19-4.26,5s1.76,5,4.26,5a5.56,5.56,0,0,0,3.49-1.37c.47.65.92,1.3,1.37,1.94a7.39,7.39,0,0,1-4.86,1.74C877.36,108.14,874.61,104.94,874.61,100.79Z"/><path class="cls-2" d="M895.46,104.59h-5.25l-1.09,3.31h-2.75l5-14.22h2.86l5,14.22h-2.75Zm-4.54-2.21h3.82l-1.91-5.84Z"/><path class="cls-2" d="M900.22,93.68h2.57v11.95h5.74v2.27h-8.31Z"/><path class="cls-2" d="M912.46,100.79c0-4.14,2.76-7.35,6.87-7.35a7.5,7.5,0,0,1,4.7,1.62l-1.3,2a5.55,5.55,0,0,0-3.4-1.29c-2.5,0-4.26,2.19-4.26,5s1.76,5,4.26,5a5.56,5.56,0,0,0,3.49-1.37c.47.65.92,1.3,1.37,1.94a7.39,7.39,0,0,1-4.86,1.74C915.22,108.14,912.46,104.94,912.46,100.79Z"/><path class="cls-2" d="M925.3,93.68h8.53V96h-6v3.67h5.47v2.26h-5.47v3.76H934v2.26H925.3Z"/><path class="cls-2" d="M935.66,93.68h2.54l5.86,9.82V93.68h2.45V107.9H944l-5.86-9.83v9.83h-2.45Z"/><path class="cls-2" d="M951.27,96h-3.65V93.68h9.85V96h-3.63V107.9h-2.57Z"/><path class="cls-2" d="M958.59,93.68h8.52V96h-6v3.67h5.46v2.26h-5.46v3.76h6.13v2.26h-8.7Z"/><path class="cls-2" d="M976,102.08l2.87,5.82H976l-2.46-5.43h-2v5.43h-2.57V93.68h4.79c3,0,4.8,1.66,4.8,4.39A4,4,0,0,1,976,102.08Zm-2.42-6.17h-2v4.34h2c1.56,0,2.39-.74,2.39-2.18S975.11,95.91,973.55,95.91Z"/><path class="cls-3" d="M893.28,57.72c4.35.41,4,1.74,7.08,4.83,4.13,4.11,8.18,4.34,11,2.07a14.18,14.18,0,0,1-4.85-3c-3.13-2.94-4-6.83-13.23-4.17-.41.12-.32.26-.05.29"/><path class="cls-3" d="M987.75,51.54c-14.06-6.28-28.44-2.73-40,7.6-11.27,10.07-19,21.92-34.09,22.18,11.57,4,34.39,2.51,46.91-10,.33-.35.07-.31-.14-.19-7.24,4.39-18.7,6.54-23.63,4.92,13.1-8.48,23.57-23.31,50.9-23.95,1-.11,1-.16,0-.56"/><path class="cls-3" d="M912.61,74.63c-2.57,0-5.21-1.41-6.76-2.45-2.27-1.52-3.88-3.72-5.64-5.45-2.89-2.84-7.71-4.94-14.31-2.3-.36.14-.44.32-.08.33,6.06.31,5.85,1,10.94,6.69,3.44,3.82,12.6,4.9,15.85,3.18"/><path class="cls-4" d="M975.66,44.39c-2.14-1.28-10.2-5.41-18-4.6a22.09,22.09,0,0,0-11.17,4.05c-1.68,1.09-2.85,1.9-3.87,2.66h0L942,47a28,28,0,0,1-7.67,4.11l-1.49.42c5.27-6.75,10.94-13.19,17.95-15.93a.21.21,0,0,0,0-.42c-8.51-2.14-17.42-.94-24.44,9.85-8,12.29-12.77,26.94-23.82,21.64,6.83,6.5,15.25,3.69,22.5-5.09,1-1.24,2-2.54,3.07-3.87l1.21-1.57a23.79,23.79,0,0,0,7.45-1.7l-2.39,3.27C926.42,68.53,915.79,81.58,900,75.13c18.22,12.13,31.85-5.31,38.62-11.68,8.39-7.87,16.82-18,37.06-18.52.46,0,.79-.07,0-.54"/><path class="cls-2" d="M328.83,89.25h-2.3V86.44h5.24V83.66h3.55v2.78h5.32v2.81h-2.26a5.44,5.44,0,0,1,1.29,3.52,6.06,6.06,0,0,1-12.1,0A5.42,5.42,0,0,1,328.83,89.25Zm5.17,11v4.51h12.16v2.89H330.43v-7.4Zm-.4-4.68c1.54,0,2.58-1.24,2.58-3s-1-3.15-2.58-3.15S331,90.8,331,92.55,332.05,95.56,333.6,95.56Zm12.18-11.35v6.44h3.74v2.91h-3.74v7.65h-3.52v-17Z"/><path class="cls-2" d="M364.72,94.32V97.1H352.15V89.33h7.65v-1.9h-7.65V84.59h11.12v7.58h-7.65v2.15Zm-9.35,4.38h15.32v9.19H355.37Zm3.55,2.86V105h8.23v-3.4Zm11.77-17.35V97.56h-3.52V84.21Z"/><path class="cls-2" d="M385.05,98.75v3H375.3V85.63h9v3h-5.45V98.75ZM395,84.21v23.43h-3.42V95.2h-1.69v11.68h-3.32V84.49h3.32v7.75h1.69v-8Z"/><path class="cls-2" d="M400.09,89h-2.16V86.19h5.25V83.43h3.54v2.76H412V89h-2.13A5.21,5.21,0,0,1,411,92.19a6,6,0,0,1-12,0A5.19,5.19,0,0,1,400.09,89Zm13.57,18.86v-5.72H401.84V99.26h15.34v8.63ZM405,94.8A2.84,2.84,0,1,0,402.42,92,2.6,2.6,0,0,0,405,94.8Zm12.18-10.59v5.63h3.75v3h-3.75V98h-3.52V84.21Z"/><path class="cls-2" d="M427.06,102.3V94.87h3.46v7.43h2.28V94.87h3.47v7.43h7.78v2.91H422.27V102.3ZM441.19,99h-3.5V88.85H424.85v-3h16.34Z"/><path class="cls-2" d="M461.62,100.24v3H446.2v-3Zm-14.36-9.16c0-3.63,3-6.16,6.61-6.16a6.39,6.39,0,0,1,6.64,6.16c0,3.67-3.09,6.15-6.64,6.15S447.26,94.77,447.26,91.08Zm9.65,0a3.06,3.06,0,1,0-3,3.24A3,3,0,0,0,456.91,91.08Zm9.5-6.87v23.43h-3.52V84.21Z"/><path class="cls-2" d="M469.87,102.3h5.52V98.85h-2.66V90.57h12.49V88.19H472.73V85.28h16v8.15H476.3v2.51h12.82v2.91h-3v3.45h5.55v2.91H469.87Zm12.77,0V98.85h-3.75v3.45Z"/><path class="cls-2" d="M503.12,97.15v3.12h-3.47V97.15H493.8V94.32H509v2.83Zm4.33-8.4c0,2.66-2.28,4.94-5.93,4.94s-6-2.26-6-4.89,2.21-5,6-5S507.45,86.09,507.45,88.75Zm-5.95,16h12.91v2.89H497.93V101h3.57Zm2.53-16a2.59,2.59,0,1,0-2.51,2.13A2.31,2.31,0,0,0,504,88.75Zm6.43,12.18h-4.78V98.19h4.78v-14H514V102.4h-3.55Z"/><path class="cls-2" d="M326.54,115.76h1.36v3h2.92v-3h1.36v7.52h-1.36V120H327.9v3.27h-1.36Z"/><path class="cls-2" d="M337.93,121.54h-2.77l-.58,1.74h-1.45l2.65-7.52h1.51l2.66,7.52H338.5Zm-2.39-1.18h2l-1-3.08Z"/><path class="cls-2" d="M340.91,115.76h1.36v6.32h3v1.2h-4.39Z"/><path class="cls-2" d="M346.25,115.76h1.36v6.32h3v1.2h-4.39Z"/><path class="cls-2" d="M353.36,118.89l1.74-3.13h1.46L354,120.23v3h-1.36v-3l-2.52-4.47h1.46Z"/><path class="cls-2" d="M360.79,121.92l-2-3.62v5h-1.26v-7.51h1.27l2.43,4.48,2.42-4.48h1.28v7.51h-1.27v-5l-2,3.62Z"/><path class="cls-2" d="M374.38,120.67a2.74,2.74,0,0,1-5.47,0v-4.91h1.36v5a1.38,1.38,0,1,0,2.75,0v-5h1.36Z"/><path class="cls-2" d="M375.9,115.76h1.34l3.1,5.2v-5.2h1.29v7.52h-1.34l-3.1-5.19v5.19H375.9Z"/><path class="cls-2" d="M384.65,115.76v7.52H383.3v-7.52Z"/><path class="cls-2" d="M389.16,121.57l2-5.81h1.44l-2.66,7.52H388.4l-2.65-7.52h1.43Z"/><path class="cls-2" d="M393.52,115.76H398V117h-3.15v1.94h2.89v1.19h-2.89v2h3.24v1.19h-4.6Z"/><path class="cls-2" d="M403.17,120.21l1.51,3.07h-1.49l-1.3-2.87h-1.07v2.87h-1.36v-7.52H402a2.26,2.26,0,0,1,2.54,2.33A2.11,2.11,0,0,1,403.17,120.21ZM401.89,117h-1.07v2.29h1.07c.82,0,1.26-.39,1.26-1.15S402.71,117,401.89,117Z"/><path class="cls-2" d="M406.31,121.26a2.56,2.56,0,0,0,1.81.95c.78,0,1.33-.39,1.33-1s-.33-1-1.54-1.23c-1.5-.32-2.26-1.09-2.26-2.2a2.19,2.19,0,0,1,2.41-2.13,3.26,3.26,0,0,1,2.39,1l-.77,1a2.33,2.33,0,0,0-1.56-.73c-.62,0-1.09.32-1.09.82s.41.93,1.46,1.17c1.69.39,2.33,1.17,2.33,2.34s-1,2.23-2.66,2.23a3.53,3.53,0,0,1-2.67-1.2Z"/><path class="cls-2" d="M413.56,115.76v7.52H412.2v-7.52Z"/><path class="cls-2" d="M416.68,117h-1.93v-1.22H420V117H418v6.3h-1.36Z"/><path class="cls-2" d="M423.63,118.89l1.74-3.13h1.46l-2.52,4.47v3H423v-3l-2.52-4.47h1.46Z"/><path class="cls-2" d="M433.53,121.92l-2-3.62v5h-1.26v-7.51h1.27l2.43,4.48,2.42-4.48h1.28v7.51h-1.27v-5l-2,3.62Z"/><path class="cls-2" d="M439.18,115.76h4.51V117h-3.15v1.94h2.89v1.19h-2.89v2h3.24v1.19h-4.6Z"/><path class="cls-2" d="M447.54,115.76a3.76,3.76,0,0,1,0,7.52h-2.43v-7.52ZM446.47,117v5.07h1c1.36,0,2.31-.8,2.31-2.54a2.21,2.21,0,0,0-2.31-2.53Z"/><path class="cls-2" d="M453.8,115.76v7.52h-1.36v-7.52Z"/><path class="cls-2" d="M455,119.52a3.63,3.63,0,0,1,3.63-3.88,3.93,3.93,0,0,1,2.48.86l-.69,1a2.93,2.93,0,0,0-1.79-.68,2.7,2.7,0,0,0,0,5.33,3,3,0,0,0,1.84-.72c.25.34.48.68.72,1a3.88,3.88,0,0,1-2.56.92A3.63,3.63,0,0,1,455,119.52Z"/><path class="cls-2" d="M466.51,121.54h-2.77l-.58,1.74h-1.45l2.65-7.52h1.51l2.66,7.52h-1.45Zm-2.39-1.18h2l-1-3.08Z"/><path class="cls-2" d="M469.49,115.76h1.36v6.32h3v1.2h-4.39Z"/><path class="cls-2" d="M476.87,119.52a3.64,3.64,0,0,1,3.63-3.88,3.91,3.91,0,0,1,2.48.86l-.68,1a3,3,0,0,0-1.8-.68,2.7,2.7,0,0,0,0,5.33,3,3,0,0,0,1.85-.72l.72,1a3.9,3.9,0,0,1-2.57.92A3.63,3.63,0,0,1,476.87,119.52Z"/><path class="cls-2" d="M484.12,115.76h4.5V117h-3.14v1.94h2.89v1.19h-2.89v2h3.24v1.19h-4.6Z"/><path class="cls-2" d="M490.05,115.76h1.34l3.09,5.2v-5.2h1.3v7.52h-1.34l-3.1-5.19v5.19h-1.29Z"/><path class="cls-2" d="M498.76,117h-1.93v-1.22H502V117h-1.91v6.3h-1.36Z"/><path class="cls-2" d="M503.08,115.76h4.51V117h-3.15v1.94h2.89v1.19h-2.89v2h3.24v1.19h-4.6Z"/><path class="cls-2" d="M512.73,120.21l1.51,3.07h-1.49l-1.3-2.87h-1.08v2.87H509v-7.52h2.53a2.26,2.26,0,0,1,2.54,2.33A2.12,2.12,0,0,1,512.73,120.21ZM511.45,117h-1.08v2.29h1.08c.82,0,1.26-.39,1.26-1.15S512.27,117,511.45,117Z"/><path class="cls-3" d="M436.72,44.59c4.57.44,4.18,1.83,7.43,5.07,4.34,4.32,8.58,4.55,11.6,2.18a15.15,15.15,0,0,1-5.1-3.18c-3.28-3.08-4.19-7.16-13.88-4.37-.43.12-.33.27,0,.3"/><path class="cls-3" d="M535.85,38.11c-14.76-6.59-29.84-2.87-42,8-11.83,10.57-19.91,23-35.77,23.28,12.14,4.21,36.09,2.63,49.21-10.5.35-.36.08-.32-.14-.2-7.59,4.61-19.62,6.87-24.8,5.17,13.75-8.9,24.74-24.46,53.41-25.13,1.06-.12,1-.17.06-.59"/><path class="cls-3" d="M457,62.33c-2.69,0-5.46-1.47-7.08-2.56-2.39-1.6-4.08-3.91-5.93-5.73-3-3-8.09-5.18-15-2.4-.38.15-.46.33-.09.34,6.36.33,6.15,1.1,11.48,7,3.61,4,13.22,5.14,16.63,3.33"/><path class="cls-4" d="M523.17,30.6c-2.26-1.34-10.71-5.67-18.94-4.82A23.3,23.3,0,0,0,492.5,30c-1.76,1.14-3,2-4.05,2.79h0l-.62.47a29.45,29.45,0,0,1-8.05,4.31c-.6.19-1.14.33-1.56.45,5.53-7.08,11.49-13.85,18.84-16.72a.23.23,0,0,0,0-.44c-8.93-2.25-18.28-1-25.65,10.33-8.39,12.9-13.4,28.27-25,22.71,7.16,6.82,16,3.87,23.61-5.34,1.07-1.3,2.15-2.67,3.22-4.06l1.27-1.65a24.85,24.85,0,0,0,7.81-1.78l-2.5,3.43c-8.32,11.41-19.47,25.1-36,18.33,19.12,12.72,33.43-5.57,40.53-12.26,8.8-8.26,17.65-18.84,38.89-19.42.48,0,.82-.08,0-.58"/><rect class="cls-1" x="292.95" y="0.38" width="275.06" height="144.18"/><rect class="cls-1" x="0.38" y="0.38" width="275.06" height="144.18"/><path class="cls-2" d="M40.59,101.11H38.35V98.37h5.1V95.66h3.46v2.71h5.17v2.74H49.89a5.28,5.28,0,0,1,1.26,3.43,5.9,5.9,0,0,1-11.79,0A5.31,5.31,0,0,1,40.59,101.11Zm5,10.7v4.39H57.46V119H42.15v-7.2Zm-.39-4.56c1.5,0,2.52-1.21,2.52-2.93s-1-3.06-2.52-3.06-2.51,1.36-2.51,3.06S43.73,107.25,45.23,107.25Zm11.86-11v6.27h3.65v2.83H57.09v7.45H53.66V96.2Z"/><path class="cls-2" d="M75.53,106v2.71H63.3v-7.56h7.45V99.34H63.3V96.57H74.12V104H66.68V106Zm-9.1,4.27H81.35v9H66.43Zm3.45,2.78v3.31h8v-3.31ZM81.35,96.2v13H77.92v-13Z"/><path class="cls-2" d="M95.33,110.36v2.91h-9.5V97.59h8.76v2.9H89.28v9.87ZM105,96.2V119h-3.32v-12.1H100v11.36H96.8V96.48H100V104h1.66V96.2Z"/><path class="cls-2" d="M110,100.89h-2.1V98.13H113V95.44h3.45v2.69h5.17v2.76h-2.07a5.1,5.1,0,0,1,1.06,3.08,5.85,5.85,0,0,1-11.66,0A5.08,5.08,0,0,1,110,100.89Zm13.21,18.37v-5.57H111.67v-2.84h14.94v8.41Zm-8.43-12.75a2.76,2.76,0,1,0-2.51-2.73A2.54,2.54,0,0,0,114.75,106.51ZM126.61,96.2v5.48h3.65v2.88h-3.65v5.06h-3.43V96.2Z"/><path class="cls-2" d="M136.22,113.81v-7.23h3.38v7.23h2.22v-7.23h3.38v7.23h7.57v2.83H131.56v-2.83ZM150,110.63h-3.4v-9.91h-12.5V97.81H150Z"/><path class="cls-2" d="M169.88,111.81v2.89h-15v-2.89Zm-14-8.92a6.12,6.12,0,0,1,6.43-6,6.21,6.21,0,0,1,6.46,6c0,3.57-3,6-6.46,6S155.9,106.49,155.9,102.89Zm9.39,0a3,3,0,1,0-3,3.15A3,3,0,0,0,165.29,102.89Zm9.24-6.69V119h-3.42V96.2Z"/><path class="cls-2" d="M177.91,113.81h5.37v-3.35H180.7v-8.07h12.15v-2.31H180.7V97.24h15.6v7.94H184.17v2.44h12.48v2.84h-2.94v3.35h5.4v2.83h-21.2Zm12.43,0v-3.35h-3.65v3.35Z"/><path class="cls-2" d="M210.28,108.8v3H206.9v-3h-5.69V106H216v2.76Zm4.21-8.18c0,2.59-2.21,4.81-5.76,4.81s-5.85-2.2-5.85-4.76,2.15-4.88,5.85-4.88S214.49,98,214.49,100.62ZM208.7,116.2h12.57V119H205.22v-6.46h3.48Zm2.47-15.58a2.52,2.52,0,1,0-2.44,2.07A2.25,2.25,0,0,0,211.17,100.62Zm6.26,11.86h-4.66v-2.66h4.66V96.18h3.45v17.73h-3.45Z"/><path class="cls-3" d="M145.63,61.39c4.45.43,4.06,1.79,7.23,4.94,4.22,4.2,8.35,4.43,11.29,2.12a14.67,14.67,0,0,1-5-3.09c-3.19-3-4.08-7-13.51-4.26-.42.12-.32.27-.05.29"/><path class="cls-3" d="M242.14,55.08c-14.37-6.41-29.06-2.79-40.87,7.77-11.51,10.29-19.38,22.39-34.82,22.66,11.82,4.1,35.13,2.56,47.92-10.22.34-.36.07-.31-.14-.19-7.4,4.48-19.11,6.68-24.15,5,13.39-8.67,24.08-23.82,52-24.47,1-.12,1-.17.06-.58"/><path class="cls-3" d="M165.37,78.67c-2.62,0-5.31-1.44-6.9-2.5-2.32-1.55-4-3.8-5.77-5.57-2.94-2.9-7.87-5-14.61-2.35-.37.15-.45.33-.08.34,6.19.32,6,1.07,11.17,6.84,3.52,3.89,12.87,5,16.19,3.24"/><path class="cls-4" d="M229.79,47.78c-2.2-1.31-10.42-5.53-18.44-4.7a22.69,22.69,0,0,0-11.41,4.14c-1.72,1.11-2.91,1.94-3.95,2.72h0l-.6.45a28.33,28.33,0,0,1-7.84,4.2c-.59.18-1.11.32-1.52.43,5.38-6.89,11.18-13.48,18.34-16.27a.22.22,0,0,0,0-.43c-8.69-2.19-17.8-1-25,10.06-8.17,12.55-13,27.52-24.33,22.11,7,6.64,15.58,3.77,23-5.2,1-1.27,2.09-2.6,3.13-4l1.24-1.61A24.16,24.16,0,0,0,190,58l-2.43,3.35c-8.1,11.1-19,24.43-35.09,17.84C171.11,91.57,185,73.76,192,67.25c8.57-8,17.18-18.35,37.86-18.92.47,0,.8-.07,0-.55"/></g></svg>