<svg xmlns="http://www.w3.org/2000/svg" viewBox="0 0 64.08 60.58"><defs><style>.cls-1{fill:none;stroke:#e56076;stroke-miterlimit:10;stroke-width:3px;}</style></defs><g id="main"><polygon class="cls-1" points="44.34 10.33 13.11 1.96 13.11 39.9 44.34 32.93 44.34 10.33"/><path class="cls-1" d="M62.58,27.47a5.16,5.16,0,0,1-5.17,5.17H44.34V9.86H57.41A5.17,5.17,0,0,1,62.58,15Z"/><line class="cls-1" x1="0.41" y1="21.78" x2="7.57" y2="21.78"/><line class="cls-1" x1="7.57" y1="32.19" x2="1.06" y2="38.7"/><line class="cls-1" x1="7.57" y1="11.01" x2="1.06" y2="4.5"/><path class="cls-1" d="M48.2,56.05a4.62,4.62,0,0,1-5.91,2.76l-.72-.27a4.61,4.61,0,0,1-2.76-5.9l7.06-20,10.68,0Z"/></g></svg>